<svg width="252" height="243" viewBox="0 0 252 243" fill="none" xmlns="http://www.w3.org/2000/svg">
<g filter="url(#filter0_d_422_54)">
<rect x="26" width="200" height="200" rx="100" fill="#11B9C4"/>
</g>
<path d="M0.11 237L7.194 221.6H8.316L15.4 237H14.19L7.502 222.304H7.986L1.32 237H0.11ZM2.706 232.666L3.08 231.72H12.298L12.672 232.666H2.706ZM22.5103 241.356C21.469 241.356 20.479 241.195 19.5403 240.872C18.6016 240.549 17.839 240.102 17.2523 239.53L17.8463 238.694C18.4183 239.222 19.1003 239.633 19.8923 239.926C20.699 240.219 21.5643 240.366 22.4883 240.366C24.0283 240.366 25.1576 240.007 25.8763 239.288C26.6096 238.569 26.9763 237.44 26.9763 235.9V232.71L27.1963 230.994L27.0203 229.278V225.516H28.0763V235.768C28.0763 237.689 27.607 239.097 26.6683 239.992C25.7443 240.901 24.3583 241.356 22.5103 241.356ZM22.2023 236.582C21.117 236.582 20.1416 236.347 19.2763 235.878C18.4256 235.394 17.7436 234.734 17.2303 233.898C16.7316 233.047 16.4823 232.079 16.4823 230.994C16.4823 229.894 16.7316 228.926 17.2303 228.09C17.7436 227.254 18.4256 226.601 19.2763 226.132C20.1416 225.663 21.117 225.428 22.2023 225.428C23.2436 225.428 24.175 225.655 24.9963 226.11C25.8323 226.55 26.4923 227.188 26.9763 228.024C27.4603 228.845 27.7023 229.835 27.7023 230.994C27.7023 232.138 27.4603 233.128 26.9763 233.964C26.4923 234.8 25.8323 235.445 24.9963 235.9C24.175 236.355 23.2436 236.582 22.2023 236.582ZM22.2903 235.592C23.2143 235.592 24.0283 235.401 24.7323 235.02C25.4363 234.624 25.9863 234.081 26.3823 233.392C26.793 232.688 26.9983 231.889 26.9983 230.994C26.9983 230.085 26.793 229.285 26.3823 228.596C25.9863 227.907 25.4363 227.371 24.7323 226.99C24.0283 226.609 23.2143 226.418 22.2903 226.418C21.3956 226.418 20.589 226.609 19.8703 226.99C19.1663 227.371 18.609 227.907 18.1983 228.596C17.8023 229.285 17.6043 230.085 17.6043 230.994C17.6043 231.889 17.8023 232.688 18.1983 233.392C18.609 234.081 19.1663 234.624 19.8703 235.02C20.589 235.401 21.3956 235.592 22.2903 235.592ZM37.3964 237.088C36.2377 237.088 35.2111 236.839 34.3164 236.34C33.4364 235.841 32.7397 235.152 32.2264 234.272C31.7277 233.392 31.4784 232.387 31.4784 231.258C31.4784 230.114 31.7131 229.109 32.1824 228.244C32.6664 227.364 33.3264 226.675 34.1624 226.176C34.9984 225.677 35.9371 225.428 36.9784 225.428C38.0197 225.428 38.9511 225.67 39.7724 226.154C40.6084 226.638 41.2611 227.32 41.7304 228.2C42.2144 229.065 42.4564 230.07 42.4564 231.214C42.4564 231.258 42.4491 231.309 42.4344 231.368C42.4344 231.412 42.4344 231.463 42.4344 231.522H32.2924V230.664H41.8404L41.4004 231.082C41.4151 230.187 41.2244 229.388 40.8284 228.684C40.4471 227.965 39.9264 227.408 39.2664 227.012C38.6064 226.601 37.8437 226.396 36.9784 226.396C36.1277 226.396 35.3651 226.601 34.6904 227.012C34.0304 227.408 33.5097 227.965 33.1284 228.684C32.7471 229.388 32.5564 230.195 32.5564 231.104V231.302C32.5564 232.241 32.7617 233.077 33.1724 233.81C33.5977 234.529 34.1771 235.093 34.9104 235.504C35.6437 235.9 36.4797 236.098 37.4184 236.098C38.1517 236.098 38.8337 235.966 39.4644 235.702C40.1097 235.438 40.6524 235.035 41.0924 234.492L41.7304 235.218C41.2317 235.834 40.6011 236.303 39.8384 236.626C39.0904 236.934 38.2764 237.088 37.3964 237.088ZM51.4693 225.428C52.408 225.428 53.222 225.611 53.9113 225.978C54.6153 226.33 55.158 226.873 55.5393 227.606C55.9353 228.325 56.1333 229.219 56.1333 230.29V237H55.0333V230.378C55.0333 229.087 54.7033 228.105 54.0433 227.43C53.398 226.755 52.4887 226.418 51.3153 226.418C50.4207 226.418 49.6433 226.601 48.9833 226.968C48.3233 227.335 47.8173 227.848 47.4653 228.508C47.128 229.168 46.9593 229.96 46.9593 230.884V237H45.8593V225.516H46.9153V228.706L46.7613 228.354C47.1133 227.445 47.6927 226.733 48.4993 226.22C49.306 225.692 50.296 225.428 51.4693 225.428ZM65.0841 237.088C64.0134 237.088 63.0454 236.846 62.1801 236.362C61.3294 235.863 60.6547 235.174 60.1561 234.294C59.6574 233.414 59.4081 232.402 59.4081 231.258C59.4081 230.099 59.6574 229.087 60.1561 228.222C60.6547 227.342 61.3294 226.66 62.1801 226.176C63.0454 225.677 64.0134 225.428 65.0841 225.428C66.0961 225.428 67.0054 225.663 67.8121 226.132C68.6334 226.601 69.2787 227.269 69.7481 228.134C70.2321 228.999 70.4741 230.041 70.4741 231.258C70.4741 232.446 70.2394 233.48 69.7701 234.36C69.3007 235.24 68.6554 235.915 67.8341 236.384C67.0274 236.853 66.1107 237.088 65.0841 237.088ZM65.1501 236.098C66.0301 236.098 66.8147 235.9 67.5041 235.504C68.2081 235.093 68.7581 234.521 69.1541 233.788C69.5647 233.055 69.7701 232.211 69.7701 231.258C69.7701 230.29 69.5647 229.447 69.1541 228.728C68.7581 227.995 68.2081 227.43 67.5041 227.034C66.8147 226.623 66.0301 226.418 65.1501 226.418C64.2701 226.418 63.4781 226.623 62.7741 227.034C62.0847 227.43 61.5347 227.995 61.1241 228.728C60.7281 229.447 60.5301 230.29 60.5301 231.258C60.5301 232.211 60.7281 233.055 61.1241 233.788C61.5347 234.521 62.0847 235.093 62.7741 235.504C63.4781 235.9 64.2701 236.098 65.1501 236.098ZM69.7921 237V233.238L69.9901 231.236L69.7701 229.234V220.676H70.8701V237H69.7921ZM80.1718 237.088C79.0131 237.088 77.9864 236.839 77.0918 236.34C76.2118 235.841 75.5151 235.152 75.0018 234.272C74.5031 233.392 74.2538 232.387 74.2538 231.258C74.2538 230.114 74.4884 229.109 74.9578 228.244C75.4418 227.364 76.1018 226.675 76.9378 226.176C77.7738 225.677 78.7124 225.428 79.7538 225.428C80.7951 225.428 81.7264 225.67 82.5478 226.154C83.3838 226.638 84.0364 227.32 84.5058 228.2C84.9898 229.065 85.2318 230.07 85.2318 231.214C85.2318 231.258 85.2244 231.309 85.2098 231.368C85.2098 231.412 85.2098 231.463 85.2098 231.522H75.0678V230.664H84.6158L84.1758 231.082C84.1904 230.187 83.9998 229.388 83.6038 228.684C83.2224 227.965 82.7018 227.408 82.0418 227.012C81.3818 226.601 80.6191 226.396 79.7538 226.396C78.9031 226.396 78.1404 226.601 77.4658 227.012C76.8058 227.408 76.2851 227.965 75.9038 228.684C75.5224 229.388 75.3318 230.195 75.3318 231.104V231.302C75.3318 232.241 75.5371 233.077 75.9478 233.81C76.3731 234.529 76.9524 235.093 77.6858 235.504C78.4191 235.9 79.2551 236.098 80.1938 236.098C80.9271 236.098 81.6091 235.966 82.2398 235.702C82.8851 235.438 83.4278 235.035 83.8678 234.492L84.5058 235.218C84.0071 235.834 83.3764 236.303 82.6138 236.626C81.8658 236.934 81.0518 237.088 80.1718 237.088ZM99.0591 241.356C98.0178 241.356 97.0278 241.195 96.0891 240.872C95.1505 240.549 94.3878 240.102 93.8011 239.53L94.3951 238.694C94.9671 239.222 95.6491 239.633 96.4411 239.926C97.2478 240.219 98.1131 240.366 99.0371 240.366C100.577 240.366 101.706 240.007 102.425 239.288C103.158 238.569 103.525 237.44 103.525 235.9V232.71L103.745 230.994L103.569 229.278V225.516H104.625V235.768C104.625 237.689 104.156 239.097 103.217 239.992C102.293 240.901 100.907 241.356 99.0591 241.356ZM98.7511 236.582C97.6658 236.582 96.6905 236.347 95.8251 235.878C94.9745 235.394 94.2925 234.734 93.7791 233.898C93.2805 233.047 93.0311 232.079 93.0311 230.994C93.0311 229.894 93.2805 228.926 93.7791 228.09C94.2925 227.254 94.9745 226.601 95.8251 226.132C96.6905 225.663 97.6658 225.428 98.7511 225.428C99.7925 225.428 100.724 225.655 101.545 226.11C102.381 226.55 103.041 227.188 103.525 228.024C104.009 228.845 104.251 229.835 104.251 230.994C104.251 232.138 104.009 233.128 103.525 233.964C103.041 234.8 102.381 235.445 101.545 235.9C100.724 236.355 99.7925 236.582 98.7511 236.582ZM98.8391 235.592C99.7631 235.592 100.577 235.401 101.281 235.02C101.985 234.624 102.535 234.081 102.931 233.392C103.342 232.688 103.547 231.889 103.547 230.994C103.547 230.085 103.342 229.285 102.931 228.596C102.535 227.907 101.985 227.371 101.281 226.99C100.577 226.609 99.7631 226.418 98.8391 226.418C97.9445 226.418 97.1378 226.609 96.4191 226.99C95.7151 227.371 95.1578 227.907 94.7471 228.596C94.3511 229.285 94.1531 230.085 94.1531 230.994C94.1531 231.889 94.3511 232.688 94.7471 233.392C95.1578 234.081 95.7151 234.624 96.4191 235.02C97.1378 235.401 97.9445 235.592 98.8391 235.592ZM109.281 237V225.516H110.337V228.662L110.227 228.31C110.55 227.386 111.093 226.675 111.855 226.176C112.618 225.677 113.571 225.428 114.715 225.428V226.506C114.671 226.506 114.627 226.506 114.583 226.506C114.539 226.491 114.495 226.484 114.451 226.484C113.175 226.484 112.178 226.887 111.459 227.694C110.741 228.486 110.381 229.593 110.381 231.016V237H109.281ZM124.125 237V234.382L124.081 233.986V229.674C124.081 228.603 123.787 227.789 123.201 227.232C122.629 226.675 121.785 226.396 120.671 226.396C119.879 226.396 119.138 226.535 118.449 226.814C117.774 227.078 117.195 227.423 116.711 227.848L116.161 227.056C116.733 226.543 117.422 226.147 118.229 225.868C119.035 225.575 119.879 225.428 120.759 225.428C122.181 225.428 123.274 225.787 124.037 226.506C124.799 227.225 125.181 228.295 125.181 229.718V237H124.125ZM119.989 237.088C119.138 237.088 118.397 236.956 117.767 236.692C117.151 236.413 116.674 236.025 116.337 235.526C116.014 235.027 115.853 234.455 115.853 233.81C115.853 233.223 115.985 232.695 116.249 232.226C116.527 231.742 116.982 231.353 117.613 231.06C118.243 230.752 119.087 230.598 120.143 230.598H124.367V231.456H120.165C118.977 231.456 118.141 231.676 117.657 232.116C117.187 232.556 116.953 233.106 116.953 233.766C116.953 234.499 117.231 235.086 117.789 235.526C118.346 235.966 119.131 236.186 120.143 236.186C121.111 236.186 121.925 235.966 122.585 235.526C123.259 235.086 123.758 234.448 124.081 233.612L124.389 234.36C124.081 235.196 123.553 235.863 122.805 236.362C122.071 236.846 121.133 237.088 119.989 237.088ZM133.057 237.088C132.045 237.088 131.268 236.809 130.725 236.252C130.197 235.695 129.933 234.932 129.933 233.964V223.008H131.033V233.854C131.033 234.587 131.216 235.152 131.583 235.548C131.95 235.944 132.478 236.142 133.167 236.142C133.886 236.142 134.48 235.929 134.949 235.504L135.411 236.274C135.118 236.553 134.758 236.758 134.333 236.89C133.922 237.022 133.497 237.088 133.057 237.088ZM127.821 226.462V225.516H134.685V226.462H127.821ZM143.142 237.088C142.16 237.088 141.309 236.912 140.59 236.56C139.872 236.193 139.314 235.651 138.918 234.932C138.537 234.199 138.346 233.297 138.346 232.226V225.516H139.446V232.138C139.446 233.429 139.776 234.411 140.436 235.086C141.096 235.761 142.028 236.098 143.23 236.098C144.096 236.098 144.844 235.915 145.474 235.548C146.105 235.181 146.589 234.668 146.926 234.008C147.264 233.333 147.432 232.541 147.432 231.632V225.516H148.532V237H147.476V233.81L147.63 234.184C147.293 235.079 146.728 235.79 145.936 236.318C145.159 236.831 144.228 237.088 143.142 237.088ZM153.195 237V225.516H154.295V237H153.195ZM153.745 222.722C153.496 222.722 153.283 222.634 153.107 222.458C152.931 222.282 152.843 222.077 152.843 221.842C152.843 221.593 152.931 221.38 153.107 221.204C153.283 221.028 153.496 220.94 153.745 220.94C154.009 220.94 154.222 221.028 154.383 221.204C154.559 221.365 154.647 221.571 154.647 221.82C154.647 222.069 154.559 222.282 154.383 222.458C154.222 222.634 154.009 222.722 153.745 222.722ZM162.276 237.088C161.264 237.088 160.486 236.809 159.944 236.252C159.416 235.695 159.152 234.932 159.152 233.964V223.008H160.252V233.854C160.252 234.587 160.435 235.152 160.802 235.548C161.168 235.944 161.696 236.142 162.386 236.142C163.104 236.142 163.698 235.929 164.168 235.504L164.63 236.274C164.336 236.553 163.977 236.758 163.552 236.89C163.141 237.022 162.716 237.088 162.276 237.088ZM157.04 226.462V225.516H163.904V226.462H157.04ZM174.935 237V234.382L174.891 233.986V229.674C174.891 228.603 174.598 227.789 174.011 227.232C173.439 226.675 172.596 226.396 171.481 226.396C170.689 226.396 169.949 226.535 169.259 226.814C168.585 227.078 168.005 227.423 167.521 227.848L166.971 227.056C167.543 226.543 168.233 226.147 169.039 225.868C169.846 225.575 170.689 225.428 171.569 225.428C172.992 225.428 174.085 225.787 174.847 226.506C175.61 227.225 175.991 228.295 175.991 229.718V237H174.935ZM170.799 237.088C169.949 237.088 169.208 236.956 168.577 236.692C167.961 236.413 167.485 236.025 167.147 235.526C166.825 235.027 166.663 234.455 166.663 233.81C166.663 233.223 166.795 232.695 167.059 232.226C167.338 231.742 167.793 231.353 168.423 231.06C169.054 230.752 169.897 230.598 170.953 230.598H175.177V231.456H170.975C169.787 231.456 168.951 231.676 168.467 232.116C167.998 232.556 167.763 233.106 167.763 233.766C167.763 234.499 168.042 235.086 168.599 235.526C169.157 235.966 169.941 236.186 170.953 236.186C171.921 236.186 172.735 235.966 173.395 235.526C174.07 235.086 174.569 234.448 174.891 233.612L175.199 234.36C174.891 235.196 174.363 235.863 173.615 236.362C172.882 236.846 171.943 237.088 170.799 237.088ZM194.823 225.428C195.747 225.428 196.547 225.611 197.221 225.978C197.911 226.33 198.446 226.873 198.827 227.606C199.209 228.325 199.399 229.219 199.399 230.29V237H198.299V230.378C198.299 229.087 197.984 228.105 197.353 227.43C196.723 226.755 195.843 226.418 194.713 226.418C193.848 226.418 193.1 226.601 192.469 226.968C191.839 227.335 191.355 227.848 191.017 228.508C190.68 229.168 190.511 229.96 190.511 230.884V237H189.411V230.378C189.411 229.087 189.096 228.105 188.465 227.43C187.835 226.755 186.955 226.418 185.825 226.418C184.96 226.418 184.212 226.601 183.581 226.968C182.951 227.335 182.467 227.848 182.129 228.508C181.792 229.168 181.623 229.96 181.623 230.884V237H180.523V225.516H181.579V228.684L181.425 228.332C181.763 227.437 182.327 226.733 183.119 226.22C183.911 225.692 184.865 225.428 185.979 225.428C187.123 225.428 188.084 225.721 188.861 226.308C189.653 226.88 190.152 227.738 190.357 228.882L189.983 228.728C190.291 227.745 190.871 226.953 191.721 226.352C192.572 225.736 193.606 225.428 194.823 225.428ZM208.605 237.088C207.447 237.088 206.42 236.839 205.525 236.34C204.645 235.841 203.949 235.152 203.435 234.272C202.937 233.392 202.687 232.387 202.687 231.258C202.687 230.114 202.922 229.109 203.391 228.244C203.875 227.364 204.535 226.675 205.371 226.176C206.207 225.677 207.146 225.428 208.187 225.428C209.229 225.428 210.16 225.67 210.981 226.154C211.817 226.638 212.47 227.32 212.939 228.2C213.423 229.065 213.665 230.07 213.665 231.214C213.665 231.258 213.658 231.309 213.643 231.368C213.643 231.412 213.643 231.463 213.643 231.522H203.501V230.664H213.049L212.609 231.082C212.624 230.187 212.433 229.388 212.037 228.684C211.656 227.965 211.135 227.408 210.475 227.012C209.815 226.601 209.053 226.396 208.187 226.396C207.337 226.396 206.574 226.601 205.899 227.012C205.239 227.408 204.719 227.965 204.337 228.684C203.956 229.388 203.765 230.195 203.765 231.104V231.302C203.765 232.241 203.971 233.077 204.381 233.81C204.807 234.529 205.386 235.093 206.119 235.504C206.853 235.9 207.689 236.098 208.627 236.098C209.361 236.098 210.043 235.966 210.673 235.702C211.319 235.438 211.861 235.035 212.301 234.492L212.939 235.218C212.441 235.834 211.81 236.303 211.047 236.626C210.299 236.934 209.485 237.088 208.605 237.088ZM222.678 225.428C223.617 225.428 224.431 225.611 225.12 225.978C225.824 226.33 226.367 226.873 226.748 227.606C227.144 228.325 227.342 229.219 227.342 230.29V237H226.242V230.378C226.242 229.087 225.912 228.105 225.252 227.43C224.607 226.755 223.698 226.418 222.524 226.418C221.63 226.418 220.852 226.601 220.192 226.968C219.532 227.335 219.026 227.848 218.674 228.508C218.337 229.168 218.168 229.96 218.168 230.884V237H217.068V225.516H218.124V228.706L217.97 228.354C218.322 227.445 218.902 226.733 219.708 226.22C220.515 225.692 221.505 225.428 222.678 225.428ZM235.215 237.088C234.203 237.088 233.426 236.809 232.883 236.252C232.355 235.695 232.091 234.932 232.091 233.964V223.008H233.191V233.854C233.191 234.587 233.374 235.152 233.741 235.548C234.108 235.944 234.636 236.142 235.325 236.142C236.044 236.142 236.638 235.929 237.107 235.504L237.569 236.274C237.276 236.553 236.916 236.758 236.491 236.89C236.08 237.022 235.655 237.088 235.215 237.088ZM229.979 226.462V225.516H236.843V226.462H229.979ZM244.892 237.088C243.734 237.088 242.707 236.839 241.812 236.34C240.932 235.841 240.236 235.152 239.722 234.272C239.224 233.392 238.974 232.387 238.974 231.258C238.974 230.114 239.209 229.109 239.678 228.244C240.162 227.364 240.822 226.675 241.658 226.176C242.494 225.677 243.433 225.428 244.474 225.428C245.516 225.428 246.447 225.67 247.268 226.154C248.104 226.638 248.757 227.32 249.226 228.2C249.71 229.065 249.952 230.07 249.952 231.214C249.952 231.258 249.945 231.309 249.93 231.368C249.93 231.412 249.93 231.463 249.93 231.522H239.788V230.664H249.336L248.896 231.082C248.911 230.187 248.72 229.388 248.324 228.684C247.943 227.965 247.422 227.408 246.762 227.012C246.102 226.601 245.34 226.396 244.474 226.396C243.624 226.396 242.861 226.601 242.186 227.012C241.526 227.408 241.006 227.965 240.624 228.684C240.243 229.388 240.052 230.195 240.052 231.104V231.302C240.052 232.241 240.258 233.077 240.668 233.81C241.094 234.529 241.673 235.093 242.406 235.504C243.14 235.9 243.976 236.098 244.914 236.098C245.648 236.098 246.33 235.966 246.96 235.702C247.606 235.438 248.148 235.035 248.588 234.492L249.226 235.218C248.728 235.834 248.097 236.303 247.334 236.626C246.586 236.934 245.772 237.088 244.892 237.088Z" fill="#011415"/>
<g clip-path="url(#clip0_422_54)" filter="url(#filter1_d_422_54)">
<path fill-rule="evenodd" clip-rule="evenodd" d="M144.75 143.75C151.38 143.75 157.739 141.116 162.428 136.428C167.116 131.739 169.75 125.38 169.75 118.75C169.75 112.12 167.116 105.761 162.428 101.072C157.739 96.3839 151.38 93.75 144.75 93.75C138.12 93.75 131.761 96.3839 127.072 101.072C122.384 105.761 119.75 112.12 119.75 118.75C119.75 125.38 122.384 131.739 127.072 136.428C131.761 141.116 138.12 143.75 144.75 143.75ZM176 118.75C176 127.038 172.708 134.987 166.847 140.847C160.987 146.708 153.038 150 144.75 150C136.462 150 128.513 146.708 122.653 140.847C116.792 134.987 113.5 127.038 113.5 118.75C113.5 110.462 116.792 102.513 122.653 96.6529C128.513 90.7924 136.462 87.5 144.75 87.5C153.038 87.5 160.987 90.7924 166.847 96.6529C172.708 102.513 176 110.462 176 118.75Z" fill="white"/>
<path d="M134.988 124.65C135.281 128.375 138.225 131.275 143.506 131.625V134.375H145.85V131.606C151.319 131.225 154.513 128.3 154.513 124.063C154.513 120.2 152.075 118.212 147.7 117.188L145.85 116.75V109.25C148.2 109.519 149.688 110.8 150.044 112.575H154.156C153.863 108.981 150.781 106.175 145.85 105.869V103.125H143.506V105.937C138.838 106.394 135.663 109.2 135.663 113.175C135.663 116.687 138.025 118.925 141.956 119.837L143.506 120.219V128.169C141.106 127.806 139.513 126.481 139.156 124.65H134.981H134.988ZM143.488 116.188C141.181 115.656 139.931 114.562 139.931 112.925C139.931 111.087 141.281 109.712 143.506 109.312V116.188H143.488ZM146.188 120.85C148.994 121.5 150.281 122.55 150.281 124.406C150.281 126.525 148.675 127.975 145.85 128.244V120.775L146.188 120.85Z" fill="white"/>
<path d="M82.25 50C80.5924 50 79.0027 50.6585 77.8306 51.8306C76.6585 53.0027 76 54.5924 76 56.25V106.25C76 107.908 76.6585 109.497 77.8306 110.669C79.0027 111.842 80.5924 112.5 82.25 112.5H107.769C108.131 110.35 108.675 108.263 109.381 106.25H94.75C94.75 102.935 93.433 99.7554 91.0888 97.4112C88.7446 95.067 85.5652 93.75 82.25 93.75V68.75C85.5652 68.75 88.7446 67.433 91.0888 65.0888C93.433 62.7446 94.75 59.5652 94.75 56.25H157.25C157.25 59.5652 158.567 62.7446 160.911 65.0888C163.255 67.433 166.435 68.75 169.75 68.75V90.8C172.125 92.925 174.231 95.35 176 98.0125V56.25C176 54.5924 175.342 53.0027 174.169 51.8306C172.997 50.6585 171.408 50 169.75 50H82.25Z" fill="white"/>
<path d="M138.488 81.7686L138.5 81.2499C138.499 79.0973 137.942 76.9816 136.883 75.1076C135.824 73.2335 134.299 71.6647 132.455 70.5531C130.612 69.4415 128.513 68.8247 126.361 68.7625C124.209 68.7004 122.078 69.1949 120.174 70.1981C118.269 71.2014 116.656 72.6795 115.491 74.4893C114.325 76.299 113.647 78.379 113.521 80.5279C113.396 82.6768 113.827 84.8217 114.774 86.7549C115.721 88.6881 117.15 90.344 118.925 91.5624C124.323 86.4203 131.136 83.0097 138.488 81.7686Z" fill="white"/>
</g>
<defs>
<filter id="filter0_d_422_54" x="26" y="0" width="204" height="204" filterUnits="userSpaceOnUse" color-interpolation-filters="sRGB">
<feFlood flood-opacity="0" result="BackgroundImageFix"/>
<feColorMatrix in="SourceAlpha" type="matrix" values="0 0 0 0 0 0 0 0 0 0 0 0 0 0 0 0 0 0 127 0" result="hardAlpha"/>
<feOffset dx="2" dy="2"/>
<feGaussianBlur stdDeviation="1"/>
<feComposite in2="hardAlpha" operator="out"/>
<feColorMatrix type="matrix" values="0 0 0 0 0.00416667 0 0 0 0 0.0784684 0 0 0 0 0.0833333 0 0 0 0.25 0"/>
<feBlend mode="normal" in2="BackgroundImageFix" result="effect1_dropShadow_422_54"/>
<feBlend mode="normal" in="SourceGraphic" in2="effect1_dropShadow_422_54" result="shape"/>
</filter>
<filter id="filter1_d_422_54" x="76" y="50" width="104" height="104" filterUnits="userSpaceOnUse" color-interpolation-filters="sRGB">
<feFlood flood-opacity="0" result="BackgroundImageFix"/>
<feColorMatrix in="SourceAlpha" type="matrix" values="0 0 0 0 0 0 0 0 0 0 0 0 0 0 0 0 0 0 127 0" result="hardAlpha"/>
<feOffset dx="2" dy="2"/>
<feGaussianBlur stdDeviation="1"/>
<feComposite in2="hardAlpha" operator="out"/>
<feColorMatrix type="matrix" values="0 0 0 0 0.00416667 0 0 0 0 0.0784684 0 0 0 0 0.0833333 0 0 0 0.25 0"/>
<feBlend mode="normal" in2="BackgroundImageFix" result="effect1_dropShadow_422_54"/>
<feBlend mode="normal" in="SourceGraphic" in2="effect1_dropShadow_422_54" result="shape"/>
</filter>
<clipPath id="clip0_422_54">
<rect width="100" height="100" fill="white" transform="translate(76 50)"/>
</clipPath>
</defs>
</svg>
