<svg width="208" height="243" viewBox="0 0 208 243" fill="none" xmlns="http://www.w3.org/2000/svg">
<g filter="url(#filter0_d_422_57)">
<rect x="4" width="200" height="200" rx="100" fill="#11B9C4"/>
</g>
<path d="M17.684 237V221.6H23.778C25.406 221.6 26.836 221.93 28.068 222.59C29.3 223.25 30.2533 224.159 30.928 225.318C31.6173 226.477 31.962 227.804 31.962 229.3C31.962 230.796 31.6173 232.123 30.928 233.282C30.2533 234.441 29.3 235.35 28.068 236.01C26.836 236.67 25.406 237 23.778 237H17.684ZM18.806 235.988H23.69C25.142 235.988 26.4033 235.702 27.474 235.13C28.5447 234.558 29.3733 233.773 29.96 232.776C30.5467 231.764 30.84 230.605 30.84 229.3C30.84 227.995 30.5467 226.843 29.96 225.846C29.3733 224.834 28.5447 224.042 27.474 223.47C26.4033 222.898 25.142 222.612 23.69 222.612H18.806V235.988ZM40.1718 237.088C39.0131 237.088 37.9864 236.839 37.0918 236.34C36.2118 235.841 35.5151 235.152 35.0018 234.272C34.5031 233.392 34.2538 232.387 34.2538 231.258C34.2538 230.114 34.4884 229.109 34.9578 228.244C35.4418 227.364 36.1018 226.675 36.9378 226.176C37.7738 225.677 38.7124 225.428 39.7538 225.428C40.7951 225.428 41.7264 225.67 42.5478 226.154C43.3838 226.638 44.0364 227.32 44.5058 228.2C44.9898 229.065 45.2318 230.07 45.2318 231.214C45.2318 231.258 45.2244 231.309 45.2098 231.368C45.2098 231.412 45.2098 231.463 45.2098 231.522H35.0678V230.664H44.6158L44.1758 231.082C44.1904 230.187 43.9998 229.388 43.6038 228.684C43.2224 227.965 42.7018 227.408 42.0418 227.012C41.3818 226.601 40.6191 226.396 39.7538 226.396C38.9031 226.396 38.1404 226.601 37.4658 227.012C36.8058 227.408 36.2851 227.965 35.9038 228.684C35.5224 229.388 35.3318 230.195 35.3318 231.104V231.302C35.3318 232.241 35.5371 233.077 35.9478 233.81C36.3731 234.529 36.9524 235.093 37.6858 235.504C38.4191 235.9 39.2551 236.098 40.1938 236.098C40.9271 236.098 41.6091 235.966 42.2398 235.702C42.8851 235.438 43.4278 235.035 43.8678 234.492L44.5058 235.218C44.0071 235.834 43.3764 236.303 42.6138 236.626C41.8658 236.934 41.0518 237.088 40.1718 237.088ZM51.5387 237.088C50.5854 237.088 49.6907 236.949 48.8547 236.67C48.0334 236.391 47.3954 236.039 46.9407 235.614L47.4467 234.734C47.8867 235.115 48.4734 235.445 49.2067 235.724C49.9401 235.988 50.7321 236.12 51.5827 236.12C52.7854 236.12 53.6507 235.922 54.1787 235.526C54.7067 235.13 54.9707 234.609 54.9707 233.964C54.9707 233.495 54.8314 233.128 54.5527 232.864C54.2887 232.585 53.9294 232.373 53.4747 232.226C53.0201 232.079 52.5214 231.962 51.9787 231.874C51.4361 231.771 50.8934 231.661 50.3507 231.544C49.8081 231.427 49.3094 231.258 48.8547 231.038C48.4001 230.818 48.0334 230.517 47.7547 230.136C47.4907 229.74 47.3587 229.219 47.3587 228.574C47.3587 227.987 47.5201 227.459 47.8427 226.99C48.1654 226.521 48.6494 226.147 49.2947 225.868C49.9401 225.575 50.7467 225.428 51.7147 225.428C52.4334 225.428 53.1521 225.531 53.8707 225.736C54.6041 225.941 55.1981 226.213 55.6527 226.55L55.1467 227.43C54.6627 227.063 54.1201 226.799 53.5187 226.638C52.9174 226.477 52.3087 226.396 51.6927 226.396C50.5781 226.396 49.7567 226.601 49.2287 227.012C48.7154 227.423 48.4587 227.936 48.4587 228.552C48.4587 229.036 48.5907 229.425 48.8547 229.718C49.1334 229.997 49.5001 230.217 49.9547 230.378C50.4094 230.525 50.9081 230.649 51.4507 230.752C51.9934 230.84 52.5361 230.943 53.0787 231.06C53.6214 231.177 54.1201 231.346 54.5747 231.566C55.0294 231.771 55.3887 232.065 55.6527 232.446C55.9314 232.813 56.0707 233.311 56.0707 233.942C56.0707 234.573 55.8947 235.123 55.5427 235.592C55.2054 236.061 54.6994 236.428 54.0247 236.692C53.3501 236.956 52.5214 237.088 51.5387 237.088ZM59.1406 237V225.516H60.2406V237H59.1406ZM59.6906 222.722C59.4413 222.722 59.2286 222.634 59.0526 222.458C58.8766 222.282 58.7886 222.077 58.7886 221.842C58.7886 221.593 58.8766 221.38 59.0526 221.204C59.2286 221.028 59.4413 220.94 59.6906 220.94C59.9546 220.94 60.1673 221.028 60.3286 221.204C60.5046 221.365 60.5926 221.571 60.5926 221.82C60.5926 222.069 60.5046 222.282 60.3286 222.458C60.1673 222.634 59.9546 222.722 59.6906 222.722ZM69.6509 241.356C68.6096 241.356 67.6196 241.195 66.6809 240.872C65.7423 240.549 64.9796 240.102 64.3929 239.53L64.9869 238.694C65.5589 239.222 66.2409 239.633 67.0329 239.926C67.8396 240.219 68.7049 240.366 69.6289 240.366C71.1689 240.366 72.2983 240.007 73.0169 239.288C73.7503 238.569 74.1169 237.44 74.1169 235.9V232.71L74.3369 230.994L74.1609 229.278V225.516H75.2169V235.768C75.2169 237.689 74.7476 239.097 73.8089 239.992C72.8849 240.901 71.4989 241.356 69.6509 241.356ZM69.3429 236.582C68.2576 236.582 67.2823 236.347 66.4169 235.878C65.5663 235.394 64.8843 234.734 64.3709 233.898C63.8723 233.047 63.6229 232.079 63.6229 230.994C63.6229 229.894 63.8723 228.926 64.3709 228.09C64.8843 227.254 65.5663 226.601 66.4169 226.132C67.2823 225.663 68.2576 225.428 69.3429 225.428C70.3843 225.428 71.3156 225.655 72.1369 226.11C72.9729 226.55 73.6329 227.188 74.1169 228.024C74.6009 228.845 74.8429 229.835 74.8429 230.994C74.8429 232.138 74.6009 233.128 74.1169 233.964C73.6329 234.8 72.9729 235.445 72.1369 235.9C71.3156 236.355 70.3843 236.582 69.3429 236.582ZM69.4309 235.592C70.3549 235.592 71.1689 235.401 71.8729 235.02C72.5769 234.624 73.1269 234.081 73.5229 233.392C73.9336 232.688 74.1389 231.889 74.1389 230.994C74.1389 230.085 73.9336 229.285 73.5229 228.596C73.1269 227.907 72.5769 227.371 71.8729 226.99C71.1689 226.609 70.3549 226.418 69.4309 226.418C68.5363 226.418 67.7296 226.609 67.0109 226.99C66.3069 227.371 65.7496 227.907 65.3389 228.596C64.9429 229.285 64.7449 230.085 64.7449 230.994C64.7449 231.889 64.9429 232.688 65.3389 233.392C65.7496 234.081 66.3069 234.624 67.0109 235.02C67.7296 235.401 68.5363 235.592 69.4309 235.592ZM85.483 225.428C86.4217 225.428 87.2357 225.611 87.925 225.978C88.629 226.33 89.1717 226.873 89.553 227.606C89.949 228.325 90.147 229.219 90.147 230.29V237H89.047V230.378C89.047 229.087 88.717 228.105 88.057 227.43C87.4117 226.755 86.5023 226.418 85.329 226.418C84.4343 226.418 83.657 226.601 82.997 226.968C82.337 227.335 81.831 227.848 81.479 228.508C81.1417 229.168 80.973 229.96 80.973 230.884V237H79.873V225.516H80.929V228.706L80.775 228.354C81.127 227.445 81.7063 226.733 82.513 226.22C83.3197 225.692 84.3097 225.428 85.483 225.428ZM107.564 237V234.382L107.52 233.986V229.674C107.52 228.603 107.227 227.789 106.64 227.232C106.068 226.675 105.225 226.396 104.11 226.396C103.318 226.396 102.577 226.535 101.888 226.814C101.213 227.078 100.634 227.423 100.15 227.848L99.6001 227.056C100.172 226.543 100.861 226.147 101.668 225.868C102.475 225.575 103.318 225.428 104.198 225.428C105.621 225.428 106.713 225.787 107.476 226.506C108.239 227.225 108.62 228.295 108.62 229.718V237H107.564ZM103.428 237.088C102.577 237.088 101.837 236.956 101.206 236.692C100.59 236.413 100.113 236.025 99.7761 235.526C99.4535 235.027 99.2921 234.455 99.2921 233.81C99.2921 233.223 99.4241 232.695 99.6881 232.226C99.9668 231.742 100.421 231.353 101.052 231.06C101.683 230.752 102.526 230.598 103.582 230.598H107.806V231.456H103.604C102.416 231.456 101.58 231.676 101.096 232.116C100.627 232.556 100.392 233.106 100.392 233.766C100.392 234.499 100.671 235.086 101.228 235.526C101.785 235.966 102.57 236.186 103.582 236.186C104.55 236.186 105.364 235.966 106.024 235.526C106.699 235.086 107.197 234.448 107.52 233.612L107.828 234.36C107.52 235.196 106.992 235.863 106.244 236.362C105.511 236.846 104.572 237.088 103.428 237.088ZM117.706 237.088C116.592 237.088 115.594 236.839 114.714 236.34C113.849 235.841 113.16 235.152 112.646 234.272C112.148 233.392 111.898 232.387 111.898 231.258C111.898 230.114 112.148 229.102 112.646 228.222C113.16 227.342 113.849 226.66 114.714 226.176C115.594 225.677 116.592 225.428 117.706 225.428C118.63 225.428 119.466 225.604 120.214 225.956C120.977 226.308 121.593 226.836 122.062 227.54L121.248 228.134C120.838 227.547 120.324 227.115 119.708 226.836C119.092 226.557 118.425 226.418 117.706 226.418C116.812 226.418 116.005 226.623 115.286 227.034C114.582 227.43 114.025 227.995 113.614 228.728C113.218 229.447 113.02 230.29 113.02 231.258C113.02 232.226 113.218 233.077 113.614 233.81C114.025 234.529 114.582 235.093 115.286 235.504C116.005 235.9 116.812 236.098 117.706 236.098C118.425 236.098 119.092 235.959 119.708 235.68C120.324 235.401 120.838 234.969 121.248 234.382L122.062 234.976C121.593 235.68 120.977 236.208 120.214 236.56C119.466 236.912 118.63 237.088 117.706 237.088ZM129.826 237.088C128.667 237.088 127.641 236.839 126.746 236.34C125.866 235.841 125.169 235.152 124.656 234.272C124.157 233.392 123.908 232.387 123.908 231.258C123.908 230.114 124.143 229.109 124.612 228.244C125.096 227.364 125.756 226.675 126.592 226.176C127.428 225.677 128.367 225.428 129.408 225.428C130.449 225.428 131.381 225.67 132.202 226.154C133.038 226.638 133.691 227.32 134.16 228.2C134.644 229.065 134.886 230.07 134.886 231.214C134.886 231.258 134.879 231.309 134.864 231.368C134.864 231.412 134.864 231.463 134.864 231.522H124.722V230.664H134.27L133.83 231.082C133.845 230.187 133.654 229.388 133.258 228.684C132.877 227.965 132.356 227.408 131.696 227.012C131.036 226.601 130.273 226.396 129.408 226.396C128.557 226.396 127.795 226.601 127.12 227.012C126.46 227.408 125.939 227.965 125.558 228.684C125.177 229.388 124.986 230.195 124.986 231.104V231.302C124.986 232.241 125.191 233.077 125.602 233.81C126.027 234.529 126.607 235.093 127.34 235.504C128.073 235.9 128.909 236.098 129.848 236.098C130.581 236.098 131.263 235.966 131.894 235.702C132.539 235.438 133.082 235.035 133.522 234.492L134.16 235.218C133.661 235.834 133.031 236.303 132.268 236.626C131.52 236.934 130.706 237.088 129.826 237.088ZM141.193 237.088C140.24 237.088 139.345 236.949 138.509 236.67C137.688 236.391 137.05 236.039 136.595 235.614L137.101 234.734C137.541 235.115 138.128 235.445 138.861 235.724C139.594 235.988 140.386 236.12 141.237 236.12C142.44 236.12 143.305 235.922 143.833 235.526C144.361 235.13 144.625 234.609 144.625 233.964C144.625 233.495 144.486 233.128 144.207 232.864C143.943 232.585 143.584 232.373 143.129 232.226C142.674 232.079 142.176 231.962 141.633 231.874C141.09 231.771 140.548 231.661 140.005 231.544C139.462 231.427 138.964 231.258 138.509 231.038C138.054 230.818 137.688 230.517 137.409 230.136C137.145 229.74 137.013 229.219 137.013 228.574C137.013 227.987 137.174 227.459 137.497 226.99C137.82 226.521 138.304 226.147 138.949 225.868C139.594 225.575 140.401 225.428 141.369 225.428C142.088 225.428 142.806 225.531 143.525 225.736C144.258 225.941 144.852 226.213 145.307 226.55L144.801 227.43C144.317 227.063 143.774 226.799 143.173 226.638C142.572 226.477 141.963 226.396 141.347 226.396C140.232 226.396 139.411 226.601 138.883 227.012C138.37 227.423 138.113 227.936 138.113 228.552C138.113 229.036 138.245 229.425 138.509 229.718C138.788 229.997 139.154 230.217 139.609 230.378C140.064 230.525 140.562 230.649 141.105 230.752C141.648 230.84 142.19 230.943 142.733 231.06C143.276 231.177 143.774 231.346 144.229 231.566C144.684 231.771 145.043 232.065 145.307 232.446C145.586 232.813 145.725 233.311 145.725 233.942C145.725 234.573 145.549 235.123 145.197 235.592C144.86 236.061 144.354 236.428 143.679 236.692C143.004 236.956 142.176 237.088 141.193 237.088ZM151.699 237.088C150.746 237.088 149.851 236.949 149.015 236.67C148.194 236.391 147.556 236.039 147.101 235.614L147.607 234.734C148.047 235.115 148.634 235.445 149.367 235.724C150.1 235.988 150.892 236.12 151.743 236.12C152.946 236.12 153.811 235.922 154.339 235.526C154.867 235.13 155.131 234.609 155.131 233.964C155.131 233.495 154.992 233.128 154.713 232.864C154.449 232.585 154.09 232.373 153.635 232.226C153.18 232.079 152.682 231.962 152.139 231.874C151.596 231.771 151.054 231.661 150.511 231.544C149.968 231.427 149.47 231.258 149.015 231.038C148.56 230.818 148.194 230.517 147.915 230.136C147.651 229.74 147.519 229.219 147.519 228.574C147.519 227.987 147.68 227.459 148.003 226.99C148.326 226.521 148.81 226.147 149.455 225.868C150.1 225.575 150.907 225.428 151.875 225.428C152.594 225.428 153.312 225.531 154.031 225.736C154.764 225.941 155.358 226.213 155.813 226.55L155.307 227.43C154.823 227.063 154.28 226.799 153.679 226.638C153.078 226.477 152.469 226.396 151.853 226.396C150.738 226.396 149.917 226.601 149.389 227.012C148.876 227.423 148.619 227.936 148.619 228.552C148.619 229.036 148.751 229.425 149.015 229.718C149.294 229.997 149.66 230.217 150.115 230.378C150.57 230.525 151.068 230.649 151.611 230.752C152.154 230.84 152.696 230.943 153.239 231.06C153.782 231.177 154.28 231.346 154.735 231.566C155.19 231.771 155.549 232.065 155.813 232.446C156.092 232.813 156.231 233.311 156.231 233.942C156.231 234.573 156.055 235.123 155.703 235.592C155.366 236.061 154.86 236.428 154.185 236.692C153.51 236.956 152.682 237.088 151.699 237.088ZM159.301 237V225.516H160.401V237H159.301ZM158.597 223.646L161.655 221.05H163.239L159.785 223.646H158.597ZM167.941 237L162.771 225.516H163.937L168.777 236.384H168.249L173.133 225.516H174.255L169.063 237H167.941ZM181.002 237.088C179.843 237.088 178.817 236.839 177.922 236.34C177.042 235.841 176.345 235.152 175.832 234.272C175.333 233.392 175.084 232.387 175.084 231.258C175.084 230.114 175.319 229.109 175.788 228.244C176.272 227.364 176.932 226.675 177.768 226.176C178.604 225.677 179.543 225.428 180.584 225.428C181.625 225.428 182.557 225.67 183.378 226.154C184.214 226.638 184.867 227.32 185.336 228.2C185.82 229.065 186.062 230.07 186.062 231.214C186.062 231.258 186.055 231.309 186.04 231.368C186.04 231.412 186.04 231.463 186.04 231.522H175.898V230.664H185.446L185.006 231.082C185.021 230.187 184.83 229.388 184.434 228.684C184.053 227.965 183.532 227.408 182.872 227.012C182.212 226.601 181.449 226.396 180.584 226.396C179.733 226.396 178.971 226.601 178.296 227.012C177.636 227.408 177.115 227.965 176.734 228.684C176.353 229.388 176.162 230.195 176.162 231.104V231.302C176.162 232.241 176.367 233.077 176.778 233.81C177.203 234.529 177.783 235.093 178.516 235.504C179.249 235.9 180.085 236.098 181.024 236.098C181.757 236.098 182.439 235.966 183.07 235.702C183.715 235.438 184.258 235.035 184.698 234.492L185.336 235.218C184.837 235.834 184.207 236.303 183.444 236.626C182.696 236.934 181.882 237.088 181.002 237.088ZM189.465 237V220.676H190.565V237H189.465Z" fill="#011415"/>
<g filter="url(#filter1_d_422_57)">
<path d="M131.706 112.938C142.331 116.156 154 119.688 154 100C154 90.111 151.068 80.444 145.574 72.2215C140.079 63.999 132.271 57.5904 123.134 53.806C113.998 50.0217 103.945 49.0315 94.2455 50.9608C84.5465 52.89 75.6373 57.6521 68.6447 64.6447C61.6521 71.6373 56.89 80.5465 54.9608 90.2455C53.0315 99.9445 54.0217 109.998 57.806 119.134C61.5904 128.27 67.9991 136.079 76.2215 141.573C84.444 147.068 94.111 150 104 150C116.475 150 115.413 140.6 114.306 130.75C113.531 123.869 112.731 116.769 116.5 112.5C119.406 109.206 125.375 111.019 131.706 112.938ZM104 81.25C102.769 81.25 101.55 81.0075 100.412 80.5364C99.2749 80.0653 98.2414 79.3747 97.3709 78.5041C96.5003 77.6336 95.8098 76.6001 95.3387 75.4627C94.8675 74.3252 94.625 73.1062 94.625 71.875C94.625 70.6439 94.8675 69.4248 95.3387 68.2874C95.8098 67.1499 96.5003 66.1164 97.3709 65.2459C98.2414 64.3753 99.2749 63.6848 100.412 63.2136C101.55 62.7425 102.769 62.5 104 62.5C106.486 62.5 108.871 63.4877 110.629 65.2459C112.387 67.004 113.375 69.3886 113.375 71.875C113.375 74.3614 112.387 76.746 110.629 78.5041C108.871 80.2623 106.486 81.25 104 81.25ZM132.125 100C129.639 100 127.254 99.0123 125.496 97.2541C123.738 95.496 122.75 93.1114 122.75 90.625C122.75 88.1386 123.738 85.754 125.496 83.9959C127.254 82.2377 129.639 81.25 132.125 81.25C134.611 81.25 136.996 82.2377 138.754 83.9959C140.512 85.754 141.5 88.1386 141.5 90.625C141.5 93.1114 140.512 95.496 138.754 97.2541C136.996 99.0123 134.611 100 132.125 100ZM85.25 90.625C85.25 91.8562 85.0075 93.0752 84.5364 94.2127C84.0653 95.3501 83.3747 96.3836 82.5042 97.2541C81.6336 98.1247 80.6001 98.8152 79.4627 99.2864C78.3253 99.7575 77.1062 100 75.875 100C74.6439 100 73.4248 99.7575 72.2874 99.2864C71.1499 98.8152 70.1164 98.1247 69.2459 97.2541C68.3753 96.3836 67.6848 95.3501 67.2137 94.2127C66.7425 93.0752 66.5 91.8562 66.5 90.625C66.5 88.1386 67.4877 85.754 69.2459 83.9959C71.004 82.2377 73.3886 81.25 75.875 81.25C78.3614 81.25 80.746 82.2377 82.5042 83.9959C84.2623 85.754 85.25 88.1386 85.25 90.625ZM88.375 131.25C85.8886 131.25 83.504 130.262 81.7459 128.504C79.9877 126.746 79 124.361 79 121.875C79 119.389 79.9877 117.004 81.7459 115.246C83.504 113.488 85.8886 112.5 88.375 112.5C90.8614 112.5 93.246 113.488 95.0042 115.246C96.7623 117.004 97.75 119.389 97.75 121.875C97.75 124.361 96.7623 126.746 95.0042 128.504C93.246 130.262 90.8614 131.25 88.375 131.25Z" fill="white"/>
</g>
<defs>
<filter id="filter0_d_422_57" x="0" y="0" width="208" height="208" filterUnits="userSpaceOnUse" color-interpolation-filters="sRGB">
<feFlood flood-opacity="0" result="BackgroundImageFix"/>
<feColorMatrix in="SourceAlpha" type="matrix" values="0 0 0 0 0 0 0 0 0 0 0 0 0 0 0 0 0 0 127 0" result="hardAlpha"/>
<feOffset dy="4"/>
<feGaussianBlur stdDeviation="2"/>
<feComposite in2="hardAlpha" operator="out"/>
<feColorMatrix type="matrix" values="0 0 0 0 0 0 0 0 0 0 0 0 0 0 0 0 0 0 0.25 0"/>
<feBlend mode="normal" in2="BackgroundImageFix" result="effect1_dropShadow_422_57"/>
<feBlend mode="normal" in="SourceGraphic" in2="effect1_dropShadow_422_57" result="shape"/>
</filter>
<filter id="filter1_d_422_57" x="54" y="50" width="104" height="104" filterUnits="userSpaceOnUse" color-interpolation-filters="sRGB">
<feFlood flood-opacity="0" result="BackgroundImageFix"/>
<feColorMatrix in="SourceAlpha" type="matrix" values="0 0 0 0 0 0 0 0 0 0 0 0 0 0 0 0 0 0 127 0" result="hardAlpha"/>
<feOffset dx="2" dy="2"/>
<feGaussianBlur stdDeviation="1"/>
<feComposite in2="hardAlpha" operator="out"/>
<feColorMatrix type="matrix" values="0 0 0 0 0.00416667 0 0 0 0 0.0784684 0 0 0 0 0.0833333 0 0 0 0.25 0"/>
<feBlend mode="normal" in2="BackgroundImageFix" result="effect1_dropShadow_422_57"/>
<feBlend mode="normal" in="SourceGraphic" in2="effect1_dropShadow_422_57" result="shape"/>
</filter>
</defs>
</svg>
