<svg width="335" height="243" viewBox="0 0 335 243" fill="none" xmlns="http://www.w3.org/2000/svg">
<rect x="67" width="200" height="200" rx="100" fill="#11B9C4"/>
<g filter="url(#filter0_d_422_52)">
<path d="M132 62.5C132 59.1848 133.475 56.0054 136.101 53.6612C138.726 51.317 142.287 50 146 50H188C191.713 50 195.274 51.317 197.899 53.6612C200.525 56.0054 202 59.1848 202 62.5V137.5C202 140.815 200.525 143.995 197.899 146.339C195.274 148.683 191.713 150 188 150H146C142.287 150 138.726 148.683 136.101 146.339C133.475 143.995 132 140.815 132 137.5V62.5ZM174 131.25C174 129.592 173.263 128.003 171.95 126.831C170.637 125.658 168.857 125 167 125C165.143 125 163.363 125.658 162.05 126.831C160.737 128.003 160 129.592 160 131.25C160 132.908 160.737 134.497 162.05 135.669C163.363 136.842 165.143 137.5 167 137.5C168.857 137.5 170.637 136.842 171.95 135.669C173.263 134.497 174 132.908 174 131.25Z" fill="white"/>
</g>
<path d="M0.11 237L7.194 221.6H8.316L15.4 237H14.19L7.502 222.304H7.986L1.32 237H0.11ZM2.706 232.666L3.08 231.72H12.298L12.672 232.666H2.706ZM22.2903 237.088C21.1756 237.088 20.1783 236.839 19.2983 236.34C18.433 235.841 17.7436 235.152 17.2303 234.272C16.7316 233.392 16.4823 232.387 16.4823 231.258C16.4823 230.114 16.7316 229.102 17.2303 228.222C17.7436 227.342 18.433 226.66 19.2983 226.176C20.1783 225.677 21.1756 225.428 22.2903 225.428C23.2143 225.428 24.0503 225.604 24.7983 225.956C25.561 226.308 26.177 226.836 26.6463 227.54L25.8323 228.134C25.4216 227.547 24.9083 227.115 24.2923 226.836C23.6763 226.557 23.009 226.418 22.2903 226.418C21.3956 226.418 20.589 226.623 19.8703 227.034C19.1663 227.43 18.609 227.995 18.1983 228.728C17.8023 229.447 17.6043 230.29 17.6043 231.258C17.6043 232.226 17.8023 233.077 18.1983 233.81C18.609 234.529 19.1663 235.093 19.8703 235.504C20.589 235.9 21.3956 236.098 22.2903 236.098C23.009 236.098 23.6763 235.959 24.2923 235.68C24.9083 235.401 25.4216 234.969 25.8323 234.382L26.6463 234.976C26.177 235.68 25.561 236.208 24.7983 236.56C24.0503 236.912 23.2143 237.088 22.2903 237.088ZM34.4101 237.088C33.2514 237.088 32.2247 236.839 31.3301 236.34C30.4501 235.841 29.7534 235.152 29.2401 234.272C28.7414 233.392 28.4921 232.387 28.4921 231.258C28.4921 230.114 28.7267 229.109 29.1961 228.244C29.6801 227.364 30.3401 226.675 31.1761 226.176C32.0121 225.677 32.9507 225.428 33.9921 225.428C35.0334 225.428 35.9647 225.67 36.7861 226.154C37.6221 226.638 38.2747 227.32 38.7441 228.2C39.2281 229.065 39.4701 230.07 39.4701 231.214C39.4701 231.258 39.4627 231.309 39.4481 231.368C39.4481 231.412 39.4481 231.463 39.4481 231.522H29.3061V230.664H38.8541L38.4141 231.082C38.4287 230.187 38.2381 229.388 37.8421 228.684C37.4607 227.965 36.9401 227.408 36.2801 227.012C35.6201 226.601 34.8574 226.396 33.9921 226.396C33.1414 226.396 32.3787 226.601 31.7041 227.012C31.0441 227.408 30.5234 227.965 30.1421 228.684C29.7607 229.388 29.5701 230.195 29.5701 231.104V231.302C29.5701 232.241 29.7754 233.077 30.1861 233.81C30.6114 234.529 31.1907 235.093 31.9241 235.504C32.6574 235.9 33.4934 236.098 34.4321 236.098C35.1654 236.098 35.8474 235.966 36.4781 235.702C37.1234 235.438 37.6661 235.035 38.1061 234.492L38.7441 235.218C38.2454 235.834 37.6147 236.303 36.8521 236.626C36.1041 236.934 35.2901 237.088 34.4101 237.088ZM45.777 237.088C44.8237 237.088 43.929 236.949 43.093 236.67C42.2717 236.391 41.6337 236.039 41.179 235.614L41.685 234.734C42.125 235.115 42.7117 235.445 43.445 235.724C44.1783 235.988 44.9703 236.12 45.821 236.12C47.0237 236.12 47.889 235.922 48.417 235.526C48.945 235.13 49.209 234.609 49.209 233.964C49.209 233.495 49.0697 233.128 48.791 232.864C48.527 232.585 48.1677 232.373 47.713 232.226C47.2583 232.079 46.7597 231.962 46.217 231.874C45.6743 231.771 45.1317 231.661 44.589 231.544C44.0463 231.427 43.5477 231.258 43.093 231.038C42.6383 230.818 42.2717 230.517 41.993 230.136C41.729 229.74 41.597 229.219 41.597 228.574C41.597 227.987 41.7583 227.459 42.081 226.99C42.4037 226.521 42.8877 226.147 43.533 225.868C44.1783 225.575 44.985 225.428 45.953 225.428C46.6717 225.428 47.3903 225.531 48.109 225.736C48.8423 225.941 49.4363 226.213 49.891 226.55L49.385 227.43C48.901 227.063 48.3583 226.799 47.757 226.638C47.1557 226.477 46.547 226.396 45.931 226.396C44.8163 226.396 43.995 226.601 43.467 227.012C42.9537 227.423 42.697 227.936 42.697 228.552C42.697 229.036 42.829 229.425 43.093 229.718C43.3717 229.997 43.7383 230.217 44.193 230.378C44.6477 230.525 45.1463 230.649 45.689 230.752C46.2317 230.84 46.7743 230.943 47.317 231.06C47.8597 231.177 48.3583 231.346 48.813 231.566C49.2677 231.771 49.627 232.065 49.891 232.446C50.1697 232.813 50.309 233.311 50.309 233.942C50.309 234.573 50.133 235.123 49.781 235.592C49.4437 236.061 48.9377 236.428 48.263 236.692C47.5883 236.956 46.7597 237.088 45.777 237.088ZM56.2829 237.088C55.3295 237.088 54.4349 236.949 53.5989 236.67C52.7775 236.391 52.1395 236.039 51.6849 235.614L52.1909 234.734C52.6309 235.115 53.2175 235.445 53.9509 235.724C54.6842 235.988 55.4762 236.12 56.3269 236.12C57.5295 236.12 58.3949 235.922 58.9229 235.526C59.4509 235.13 59.7149 234.609 59.7149 233.964C59.7149 233.495 59.5755 233.128 59.2969 232.864C59.0329 232.585 58.6735 232.373 58.2189 232.226C57.7642 232.079 57.2655 231.962 56.7229 231.874C56.1802 231.771 55.6375 231.661 55.0949 231.544C54.5522 231.427 54.0535 231.258 53.5989 231.038C53.1442 230.818 52.7775 230.517 52.4989 230.136C52.2349 229.74 52.1029 229.219 52.1029 228.574C52.1029 227.987 52.2642 227.459 52.5869 226.99C52.9095 226.521 53.3935 226.147 54.0389 225.868C54.6842 225.575 55.4909 225.428 56.4589 225.428C57.1775 225.428 57.8962 225.531 58.6149 225.736C59.3482 225.941 59.9422 226.213 60.3969 226.55L59.8909 227.43C59.4069 227.063 58.8642 226.799 58.2629 226.638C57.6615 226.477 57.0529 226.396 56.4369 226.396C55.3222 226.396 54.5009 226.601 53.9729 227.012C53.4595 227.423 53.2029 227.936 53.2029 228.552C53.2029 229.036 53.3349 229.425 53.5989 229.718C53.8775 229.997 54.2442 230.217 54.6989 230.378C55.1535 230.525 55.6522 230.649 56.1949 230.752C56.7375 230.84 57.2802 230.943 57.8229 231.06C58.3655 231.177 58.8642 231.346 59.3189 231.566C59.7735 231.771 60.1329 232.065 60.3969 232.446C60.6755 232.813 60.8149 233.311 60.8149 233.942C60.8149 234.573 60.6389 235.123 60.2869 235.592C59.9495 236.061 59.4435 236.428 58.7689 236.692C58.0942 236.956 57.2655 237.088 56.2829 237.088ZM68.5487 237.088C67.3901 237.088 66.3634 236.839 65.4687 236.34C64.5887 235.841 63.8921 235.152 63.3787 234.272C62.8801 233.392 62.6307 232.387 62.6307 231.258C62.6307 230.114 62.8654 229.109 63.3347 228.244C63.8187 227.364 64.4787 226.675 65.3147 226.176C66.1507 225.677 67.0894 225.428 68.1307 225.428C69.1721 225.428 70.1034 225.67 70.9247 226.154C71.7607 226.638 72.4134 227.32 72.8827 228.2C73.3667 229.065 73.6087 230.07 73.6087 231.214C73.6087 231.258 73.6014 231.309 73.5867 231.368C73.5867 231.412 73.5867 231.463 73.5867 231.522H63.4447V230.664H72.9927L72.5527 231.082C72.5674 230.187 72.3767 229.388 71.9807 228.684C71.5994 227.965 71.0787 227.408 70.4187 227.012C69.7587 226.601 68.9961 226.396 68.1307 226.396C67.2801 226.396 66.5174 226.601 65.8427 227.012C65.1827 227.408 64.6621 227.965 64.2807 228.684C63.8994 229.388 63.7087 230.195 63.7087 231.104V231.302C63.7087 232.241 63.9141 233.077 64.3247 233.81C64.7501 234.529 65.3294 235.093 66.0627 235.504C66.7961 235.9 67.6321 236.098 68.5707 236.098C69.3041 236.098 69.9861 235.966 70.6167 235.702C71.2621 235.438 71.8047 235.035 72.2447 234.492L72.8827 235.218C72.3841 235.834 71.7534 236.303 70.9907 236.626C70.2427 236.934 69.4287 237.088 68.5487 237.088ZM87.0841 237.088C86.0134 237.088 85.0454 236.846 84.1801 236.362C83.3294 235.863 82.6547 235.174 82.1561 234.294C81.6574 233.414 81.4081 232.402 81.4081 231.258C81.4081 230.099 81.6574 229.087 82.1561 228.222C82.6547 227.342 83.3294 226.66 84.1801 226.176C85.0454 225.677 86.0134 225.428 87.0841 225.428C88.0961 225.428 89.0054 225.663 89.8121 226.132C90.6334 226.601 91.2787 227.269 91.7481 228.134C92.2321 228.999 92.4741 230.041 92.4741 231.258C92.4741 232.446 92.2394 233.48 91.7701 234.36C91.3007 235.24 90.6554 235.915 89.8341 236.384C89.0274 236.853 88.1107 237.088 87.0841 237.088ZM87.1501 236.098C88.0301 236.098 88.8147 235.9 89.5041 235.504C90.2081 235.093 90.7581 234.521 91.1541 233.788C91.5647 233.055 91.7701 232.211 91.7701 231.258C91.7701 230.29 91.5647 229.447 91.1541 228.728C90.7581 227.995 90.2081 227.43 89.5041 227.034C88.8147 226.623 88.0301 226.418 87.1501 226.418C86.2701 226.418 85.4781 226.623 84.7741 227.034C84.0847 227.43 83.5347 227.995 83.1241 228.728C82.7281 229.447 82.5301 230.29 82.5301 231.258C82.5301 232.211 82.7281 233.055 83.1241 233.788C83.5347 234.521 84.0847 235.093 84.7741 235.504C85.4781 235.9 86.2701 236.098 87.1501 236.098ZM91.7921 237V233.238L91.9901 231.236L91.7701 229.234V220.676H92.8701V237H91.7921ZM102.172 237.088C101.013 237.088 99.9864 236.839 99.0918 236.34C98.2118 235.841 97.5151 235.152 97.0018 234.272C96.5031 233.392 96.2538 232.387 96.2538 231.258C96.2538 230.114 96.4884 229.109 96.9578 228.244C97.4418 227.364 98.1018 226.675 98.9378 226.176C99.7738 225.677 100.712 225.428 101.754 225.428C102.795 225.428 103.726 225.67 104.548 226.154C105.384 226.638 106.036 227.32 106.506 228.2C106.99 229.065 107.232 230.07 107.232 231.214C107.232 231.258 107.224 231.309 107.21 231.368C107.21 231.412 107.21 231.463 107.21 231.522H97.0678V230.664H106.616L106.176 231.082C106.19 230.187 106 229.388 105.604 228.684C105.222 227.965 104.702 227.408 104.042 227.012C103.382 226.601 102.619 226.396 101.754 226.396C100.903 226.396 100.14 226.601 99.4658 227.012C98.8058 227.408 98.2851 227.965 97.9038 228.684C97.5224 229.388 97.3318 230.195 97.3318 231.104V231.302C97.3318 232.241 97.5371 233.077 97.9478 233.81C98.3731 234.529 98.9524 235.093 99.6858 235.504C100.419 235.9 101.255 236.098 102.194 236.098C102.927 236.098 103.609 235.966 104.24 235.702C104.885 235.438 105.428 235.035 105.868 234.492L106.506 235.218C106.007 235.834 105.376 236.303 104.614 236.626C103.866 236.934 103.052 237.088 102.172 237.088ZM120.707 237.088C119.636 237.088 118.668 236.846 117.803 236.362C116.952 235.863 116.278 235.174 115.779 234.294C115.28 233.414 115.031 232.402 115.031 231.258C115.031 230.114 115.28 229.102 115.779 228.222C116.278 227.342 116.952 226.66 117.803 226.176C118.668 225.677 119.636 225.428 120.707 225.428C121.734 225.428 122.65 225.663 123.457 226.132C124.278 226.601 124.924 227.276 125.393 228.156C125.862 229.021 126.097 230.055 126.097 231.258C126.097 232.461 125.855 233.502 125.371 234.382C124.902 235.247 124.256 235.915 123.435 236.384C122.628 236.853 121.719 237.088 120.707 237.088ZM120.773 236.098C121.653 236.098 122.438 235.9 123.127 235.504C123.831 235.093 124.381 234.521 124.777 233.788C125.188 233.055 125.393 232.211 125.393 231.258C125.393 230.29 125.188 229.447 124.777 228.728C124.381 227.995 123.831 227.43 123.127 227.034C122.438 226.623 121.653 226.418 120.773 226.418C119.893 226.418 119.101 226.623 118.397 227.034C117.708 227.43 117.158 227.995 116.747 228.728C116.351 229.447 116.153 230.29 116.153 231.258C116.153 232.211 116.351 233.055 116.747 233.788C117.158 234.521 117.708 235.093 118.397 235.504C119.101 235.9 119.893 236.098 120.773 236.098ZM125.393 241.268V233.282L125.613 231.28L125.415 229.278V225.516H126.493V241.268H125.393ZM135.795 237.088C134.812 237.088 133.961 236.912 133.243 236.56C132.524 236.193 131.967 235.651 131.571 234.932C131.189 234.199 130.999 233.297 130.999 232.226V225.516H132.099V232.138C132.099 233.429 132.429 234.411 133.089 235.086C133.749 235.761 134.68 236.098 135.883 236.098C136.748 236.098 137.496 235.915 138.127 235.548C138.757 235.181 139.241 234.668 139.579 234.008C139.916 233.333 140.085 232.541 140.085 231.632V225.516H141.185V237H140.129V233.81L140.283 234.184C139.945 235.079 139.381 235.79 138.589 236.318C137.811 236.831 136.88 237.088 135.795 237.088ZM153.086 237V234.382L153.042 233.986V229.674C153.042 228.603 152.748 227.789 152.162 227.232C151.59 226.675 150.746 226.396 149.632 226.396C148.84 226.396 148.099 226.535 147.41 226.814C146.735 227.078 146.156 227.423 145.672 227.848L145.122 227.056C145.694 226.543 146.383 226.147 147.19 225.868C147.996 225.575 148.84 225.428 149.72 225.428C151.142 225.428 152.235 225.787 152.998 226.506C153.76 227.225 154.142 228.295 154.142 229.718V237H153.086ZM148.95 237.088C148.099 237.088 147.358 236.956 146.728 236.692C146.112 236.413 145.635 236.025 145.298 235.526C144.975 235.027 144.814 234.455 144.814 233.81C144.814 233.223 144.946 232.695 145.21 232.226C145.488 231.742 145.943 231.353 146.574 231.06C147.204 230.752 148.048 230.598 149.104 230.598H153.328V231.456H149.126C147.938 231.456 147.102 231.676 146.618 232.116C146.148 232.556 145.914 233.106 145.914 233.766C145.914 234.499 146.192 235.086 146.75 235.526C147.307 235.966 148.092 236.186 149.104 236.186C150.072 236.186 150.886 235.966 151.546 235.526C152.22 235.086 152.719 234.448 153.042 233.612L153.35 234.36C153.042 235.196 152.514 235.863 151.766 236.362C151.032 236.846 150.094 237.088 148.95 237.088ZM158.674 237V220.676H159.774V237H158.674ZM168.832 237.088C167.761 237.088 166.793 236.846 165.928 236.362C165.077 235.863 164.403 235.174 163.904 234.294C163.405 233.414 163.156 232.402 163.156 231.258C163.156 230.114 163.405 229.102 163.904 228.222C164.403 227.342 165.077 226.66 165.928 226.176C166.793 225.677 167.761 225.428 168.832 225.428C169.859 225.428 170.775 225.663 171.582 226.132C172.403 226.601 173.049 227.276 173.518 228.156C173.987 229.021 174.222 230.055 174.222 231.258C174.222 232.461 173.98 233.502 173.496 234.382C173.027 235.247 172.381 235.915 171.56 236.384C170.753 236.853 169.844 237.088 168.832 237.088ZM168.898 236.098C169.778 236.098 170.563 235.9 171.252 235.504C171.956 235.093 172.506 234.521 172.902 233.788C173.313 233.055 173.518 232.211 173.518 231.258C173.518 230.29 173.313 229.447 172.902 228.728C172.506 227.995 171.956 227.43 171.252 227.034C170.563 226.623 169.778 226.418 168.898 226.418C168.018 226.418 167.226 226.623 166.522 227.034C165.833 227.43 165.283 227.995 164.872 228.728C164.476 229.447 164.278 230.29 164.278 231.258C164.278 232.211 164.476 233.055 164.872 233.788C165.283 234.521 165.833 235.093 166.522 235.504C167.226 235.9 168.018 236.098 168.898 236.098ZM173.518 241.268V233.282L173.738 231.28L173.54 229.278V225.516H174.618V241.268H173.518ZM183.92 237.088C182.937 237.088 182.086 236.912 181.368 236.56C180.649 236.193 180.092 235.651 179.696 234.932C179.314 234.199 179.124 233.297 179.124 232.226V225.516H180.224V232.138C180.224 233.429 180.554 234.411 181.214 235.086C181.874 235.761 182.805 236.098 184.008 236.098C184.873 236.098 185.621 235.915 186.252 235.548C186.882 235.181 187.366 234.668 187.704 234.008C188.041 233.333 188.21 232.541 188.21 231.632V225.516H189.31V237H188.254V233.81L188.408 234.184C188.07 235.079 187.506 235.79 186.714 236.318C185.936 236.831 185.005 237.088 183.92 237.088ZM198.637 237.088C197.478 237.088 196.451 236.839 195.557 236.34C194.677 235.841 193.98 235.152 193.467 234.272C192.968 233.392 192.719 232.387 192.719 231.258C192.719 230.114 192.953 229.109 193.423 228.244C193.907 227.364 194.567 226.675 195.403 226.176C196.239 225.677 197.177 225.428 198.219 225.428C199.26 225.428 200.191 225.67 201.013 226.154C201.849 226.638 202.501 227.32 202.971 228.2C203.455 229.065 203.697 230.07 203.697 231.214C203.697 231.258 203.689 231.309 203.675 231.368C203.675 231.412 203.675 231.463 203.675 231.522H193.533V230.664H203.081L202.641 231.082C202.655 230.187 202.465 229.388 202.069 228.684C201.687 227.965 201.167 227.408 200.507 227.012C199.847 226.601 199.084 226.396 198.219 226.396C197.368 226.396 196.605 226.601 195.931 227.012C195.271 227.408 194.75 227.965 194.369 228.684C193.987 229.388 193.797 230.195 193.797 231.104V231.302C193.797 232.241 194.002 233.077 194.413 233.81C194.838 234.529 195.417 235.093 196.151 235.504C196.884 235.9 197.72 236.098 198.659 236.098C199.392 236.098 200.074 235.966 200.705 235.702C201.35 235.438 201.893 235.035 202.333 234.492L202.971 235.218C202.472 235.834 201.841 236.303 201.079 236.626C200.331 236.934 199.517 237.088 198.637 237.088ZM207.1 237V225.516H208.156V228.662L208.046 228.31C208.368 227.386 208.911 226.675 209.674 226.176C210.436 225.677 211.39 225.428 212.534 225.428V226.506C212.49 226.506 212.446 226.506 212.402 226.506C212.358 226.491 212.314 226.484 212.27 226.484C210.994 226.484 209.996 226.887 209.278 227.694C208.559 228.486 208.2 229.593 208.2 231.016V237H207.1ZM225.83 237.088C224.76 237.088 223.792 236.846 222.926 236.362C222.076 235.863 221.401 235.174 220.902 234.294C220.404 233.414 220.154 232.402 220.154 231.258C220.154 230.099 220.404 229.087 220.902 228.222C221.401 227.342 222.076 226.66 222.926 226.176C223.792 225.677 224.76 225.428 225.83 225.428C226.842 225.428 227.752 225.663 228.558 226.132C229.38 226.601 230.025 227.269 230.494 228.134C230.978 228.999 231.22 230.041 231.22 231.258C231.22 232.446 230.986 233.48 230.516 234.36C230.047 235.24 229.402 235.915 228.58 236.384C227.774 236.853 226.857 237.088 225.83 237.088ZM225.896 236.098C226.776 236.098 227.561 235.9 228.25 235.504C228.954 235.093 229.504 234.521 229.9 233.788C230.311 233.055 230.516 232.211 230.516 231.258C230.516 230.29 230.311 229.447 229.9 228.728C229.504 227.995 228.954 227.43 228.25 227.034C227.561 226.623 226.776 226.418 225.896 226.418C225.016 226.418 224.224 226.623 223.52 227.034C222.831 227.43 222.281 227.995 221.87 228.728C221.474 229.447 221.276 230.29 221.276 231.258C221.276 232.211 221.474 233.055 221.87 233.788C222.281 234.521 222.831 235.093 223.52 235.504C224.224 235.9 225.016 236.098 225.896 236.098ZM230.538 237V233.238L230.736 231.236L230.516 229.234V220.676H231.616V237H230.538ZM236.254 237V225.516H237.354V237H236.254ZM236.804 222.722C236.555 222.722 236.342 222.634 236.166 222.458C235.99 222.282 235.902 222.077 235.902 221.842C235.902 221.593 235.99 221.38 236.166 221.204C236.342 221.028 236.555 220.94 236.804 220.94C237.068 220.94 237.281 221.028 237.442 221.204C237.618 221.365 237.706 221.571 237.706 221.82C237.706 222.069 237.618 222.282 237.442 222.458C237.281 222.634 237.068 222.722 236.804 222.722ZM244.894 237.088C243.941 237.088 243.046 236.949 242.21 236.67C241.389 236.391 240.751 236.039 240.296 235.614L240.802 234.734C241.242 235.115 241.829 235.445 242.562 235.724C243.296 235.988 244.088 236.12 244.938 236.12C246.141 236.12 247.006 235.922 247.534 235.526C248.062 235.13 248.326 234.609 248.326 233.964C248.326 233.495 248.187 233.128 247.908 232.864C247.644 232.585 247.285 232.373 246.83 232.226C246.376 232.079 245.877 231.962 245.334 231.874C244.792 231.771 244.249 231.661 243.706 231.544C243.164 231.427 242.665 231.258 242.21 231.038C241.756 230.818 241.389 230.517 241.11 230.136C240.846 229.74 240.714 229.219 240.714 228.574C240.714 227.987 240.876 227.459 241.198 226.99C241.521 226.521 242.005 226.147 242.65 225.868C243.296 225.575 244.102 225.428 245.07 225.428C245.789 225.428 246.508 225.531 247.226 225.736C247.96 225.941 248.554 226.213 249.008 226.55L248.502 227.43C248.018 227.063 247.476 226.799 246.874 226.638C246.273 226.477 245.664 226.396 245.048 226.396C243.934 226.396 243.112 226.601 242.584 227.012C242.071 227.423 241.814 227.936 241.814 228.552C241.814 229.036 241.946 229.425 242.21 229.718C242.489 229.997 242.856 230.217 243.31 230.378C243.765 230.525 244.264 230.649 244.806 230.752C245.349 230.84 245.892 230.943 246.434 231.06C246.977 231.177 247.476 231.346 247.93 231.566C248.385 231.771 248.744 232.065 249.008 232.446C249.287 232.813 249.426 233.311 249.426 233.942C249.426 234.573 249.25 235.123 248.898 235.592C248.561 236.061 248.055 236.428 247.38 236.692C246.706 236.956 245.877 237.088 244.894 237.088ZM258.26 237.088C257.248 237.088 256.331 236.853 255.51 236.384C254.703 235.915 254.058 235.247 253.574 234.382C253.105 233.502 252.87 232.461 252.87 231.258C252.87 230.055 253.105 229.021 253.574 228.156C254.058 227.276 254.703 226.601 255.51 226.132C256.331 225.663 257.248 225.428 258.26 225.428C259.345 225.428 260.313 225.677 261.164 226.176C262.029 226.66 262.704 227.342 263.188 228.222C263.687 229.102 263.936 230.114 263.936 231.258C263.936 232.402 263.687 233.414 263.188 234.294C262.704 235.174 262.029 235.863 261.164 236.362C260.313 236.846 259.345 237.088 258.26 237.088ZM252.496 241.268V225.516H253.552V229.278L253.376 231.28L253.596 233.282V241.268H252.496ZM258.194 236.098C259.074 236.098 259.866 235.9 260.57 235.504C261.274 235.093 261.824 234.521 262.22 233.788C262.631 233.055 262.836 232.211 262.836 231.258C262.836 230.29 262.631 229.447 262.22 228.728C261.824 227.995 261.274 227.43 260.57 227.034C259.866 226.623 259.074 226.418 258.194 226.418C257.314 226.418 256.522 226.623 255.818 227.034C255.129 227.43 254.579 227.995 254.168 228.728C253.772 229.447 253.574 230.29 253.574 231.258C253.574 232.211 253.772 233.055 254.168 233.788C254.579 234.521 255.129 235.093 255.818 235.504C256.522 235.9 257.314 236.098 258.194 236.098ZM271.83 237.088C270.73 237.088 269.747 236.839 268.882 236.34C268.031 235.841 267.349 235.152 266.836 234.272C266.337 233.392 266.088 232.387 266.088 231.258C266.088 230.114 266.337 229.109 266.836 228.244C267.349 227.364 268.031 226.675 268.882 226.176C269.747 225.677 270.73 225.428 271.83 225.428C272.93 225.428 273.912 225.677 274.778 226.176C275.643 226.675 276.325 227.364 276.824 228.244C277.322 229.109 277.572 230.114 277.572 231.258C277.572 232.387 277.322 233.392 276.824 234.272C276.325 235.152 275.643 235.841 274.778 236.34C273.912 236.839 272.93 237.088 271.83 237.088ZM271.83 236.098C272.71 236.098 273.502 235.9 274.206 235.504C274.91 235.093 275.46 234.521 275.856 233.788C276.252 233.055 276.45 232.211 276.45 231.258C276.45 230.29 276.252 229.447 275.856 228.728C275.46 227.995 274.91 227.43 274.206 227.034C273.502 226.623 272.71 226.418 271.83 226.418C270.95 226.418 270.158 226.623 269.454 227.034C268.764 227.43 268.214 227.995 267.804 228.728C267.408 229.447 267.21 230.29 267.21 231.258C267.21 232.211 267.408 233.055 267.804 233.788C268.214 234.521 268.764 235.093 269.454 235.504C270.158 235.9 270.95 236.098 271.83 236.098ZM283.888 237.088C282.935 237.088 282.04 236.949 281.204 236.67C280.383 236.391 279.745 236.039 279.29 235.614L279.796 234.734C280.236 235.115 280.823 235.445 281.556 235.724C282.29 235.988 283.082 236.12 283.932 236.12C285.135 236.12 286 235.922 286.528 235.526C287.056 235.13 287.32 234.609 287.32 233.964C287.32 233.495 287.181 233.128 286.902 232.864C286.638 232.585 286.279 232.373 285.824 232.226C285.37 232.079 284.871 231.962 284.328 231.874C283.786 231.771 283.243 231.661 282.7 231.544C282.158 231.427 281.659 231.258 281.204 231.038C280.75 230.818 280.383 230.517 280.104 230.136C279.84 229.74 279.708 229.219 279.708 228.574C279.708 227.987 279.87 227.459 280.192 226.99C280.515 226.521 280.999 226.147 281.644 225.868C282.29 225.575 283.096 225.428 284.064 225.428C284.783 225.428 285.502 225.531 286.22 225.736C286.954 225.941 287.548 226.213 288.002 226.55L287.496 227.43C287.012 227.063 286.47 226.799 285.868 226.638C285.267 226.477 284.658 226.396 284.042 226.396C282.928 226.396 282.106 226.601 281.578 227.012C281.065 227.423 280.808 227.936 280.808 228.552C280.808 229.036 280.94 229.425 281.204 229.718C281.483 229.997 281.85 230.217 282.304 230.378C282.759 230.525 283.258 230.649 283.8 230.752C284.343 230.84 284.886 230.943 285.428 231.06C285.971 231.177 286.47 231.346 286.924 231.566C287.379 231.771 287.738 232.065 288.002 232.446C288.281 232.813 288.42 233.311 288.42 233.942C288.42 234.573 288.244 235.123 287.892 235.592C287.555 236.061 287.049 236.428 286.374 236.692C285.7 236.956 284.871 237.088 283.888 237.088ZM291.49 237V225.516H292.59V237H291.49ZM292.04 222.722C291.791 222.722 291.578 222.634 291.402 222.458C291.226 222.282 291.138 222.077 291.138 221.842C291.138 221.593 291.226 221.38 291.402 221.204C291.578 221.028 291.791 220.94 292.04 220.94C292.304 220.94 292.517 221.028 292.678 221.204C292.854 221.365 292.942 221.571 292.942 221.82C292.942 222.069 292.854 222.282 292.678 222.458C292.517 222.634 292.304 222.722 292.04 222.722ZM300.571 237.088C299.559 237.088 298.781 236.809 298.239 236.252C297.711 235.695 297.447 234.932 297.447 233.964V223.008H298.547V233.854C298.547 234.587 298.73 235.152 299.097 235.548C299.463 235.944 299.991 236.142 300.681 236.142C301.399 236.142 301.993 235.929 302.463 235.504L302.925 236.274C302.631 236.553 302.272 236.758 301.847 236.89C301.436 237.022 301.011 237.088 300.571 237.088ZM295.335 226.462V225.516H302.199V226.462H295.335ZM305.992 237V225.516H307.092V237H305.992ZM306.542 222.722C306.293 222.722 306.08 222.634 305.904 222.458C305.728 222.282 305.64 222.077 305.64 221.842C305.64 221.593 305.728 221.38 305.904 221.204C306.08 221.028 306.293 220.94 306.542 220.94C306.806 220.94 307.019 221.028 307.18 221.204C307.356 221.365 307.444 221.571 307.444 221.82C307.444 222.069 307.356 222.282 307.18 222.458C307.019 222.634 306.806 222.722 306.542 222.722ZM314.632 237L309.462 225.516H310.628L315.468 236.384H314.94L319.824 225.516H320.946L315.754 237H314.632ZM327.517 237.088C326.417 237.088 325.435 236.839 324.569 236.34C323.719 235.841 323.037 235.152 322.523 234.272C322.025 233.392 321.775 232.387 321.775 231.258C321.775 230.114 322.025 229.109 322.523 228.244C323.037 227.364 323.719 226.675 324.569 226.176C325.435 225.677 326.417 225.428 327.517 225.428C328.617 225.428 329.6 225.677 330.465 226.176C331.331 226.675 332.013 227.364 332.511 228.244C333.01 229.109 333.259 230.114 333.259 231.258C333.259 232.387 333.01 233.392 332.511 234.272C332.013 235.152 331.331 235.841 330.465 236.34C329.6 236.839 328.617 237.088 327.517 237.088ZM327.517 236.098C328.397 236.098 329.189 235.9 329.893 235.504C330.597 235.093 331.147 234.521 331.543 233.788C331.939 233.055 332.137 232.211 332.137 231.258C332.137 230.29 331.939 229.447 331.543 228.728C331.147 227.995 330.597 227.43 329.893 227.034C329.189 226.623 328.397 226.418 327.517 226.418C326.637 226.418 325.845 226.623 325.141 227.034C324.452 227.43 323.902 227.995 323.491 228.728C323.095 229.447 322.897 230.29 322.897 231.258C322.897 232.211 323.095 233.055 323.491 233.788C323.902 234.521 324.452 235.093 325.141 235.504C325.845 235.9 326.637 236.098 327.517 236.098Z" fill="#011415"/>
<defs>
<filter id="filter0_d_422_52" x="132" y="50" width="74" height="104" filterUnits="userSpaceOnUse" color-interpolation-filters="sRGB">
<feFlood flood-opacity="0" result="BackgroundImageFix"/>
<feColorMatrix in="SourceAlpha" type="matrix" values="0 0 0 0 0 0 0 0 0 0 0 0 0 0 0 0 0 0 127 0" result="hardAlpha"/>
<feOffset dx="2" dy="2"/>
<feGaussianBlur stdDeviation="1"/>
<feComposite in2="hardAlpha" operator="out"/>
<feColorMatrix type="matrix" values="0 0 0 0 0.00416667 0 0 0 0 0.0784684 0 0 0 0 0.0833333 0 0 0 0.25 0"/>
<feBlend mode="normal" in2="BackgroundImageFix" result="effect1_dropShadow_422_52"/>
<feBlend mode="normal" in="SourceGraphic" in2="effect1_dropShadow_422_52" result="shape"/>
</filter>
</defs>
</svg>
