<svg width="151" height="46" viewBox="0 0 151 46" fill="none" xmlns="http://www.w3.org/2000/svg">
<g filter="url(#filter0_d_684_560)">
<path d="M30.5709 15.6695C30.5709 24.3235 15.7854 42.3396 15.7854 42.3396C15.7854 42.3396 1 24.3235 1 15.6695C1 7.01546 6.89381 0 15.7854 0C24.6771 0 30.5709 7.01546 30.5709 15.6695Z" fill="#11B9C4"/>
<path d="M15.7857 23.0244C20.54 23.0244 24.3941 19.2732 24.3941 14.646C24.3941 10.0187 20.54 6.26758 15.7857 6.26758C11.0314 6.26758 7.17725 10.0187 7.17725 14.646C7.17725 19.2732 11.0314 23.0244 15.7857 23.0244Z" fill="white"/>
<path d="M9.80566 16.2447V12.9189H21.7654V16.2447H9.80566Z" fill="#11B9C4"/>
<path d="M14.0767 8.76221H17.4937V20.4024H14.0767V8.76221Z" fill="#11B9C4"/>
<path d="M59.5696 13.9914C60.4681 13.9914 61.1198 13.7223 61.5247 13.1841C61.9295 12.6363 62.132 11.8194 62.132 10.7334C62.132 10.1953 62.0826 9.73395 61.9838 9.34953C61.8851 8.96512 61.7222 8.65278 61.4951 8.41251C61.2778 8.16264 60.9964 7.98485 60.6508 7.87913C60.3052 7.76381 59.8855 7.70614 59.3918 7.70614H57.8662V13.9914H59.5696ZM55.8667 15.6204V6.04834H59.6733C60.3348 6.04834 60.947 6.15886 61.5099 6.3799C62.0727 6.59133 62.5516 6.89887 62.9466 7.30251C63.3514 7.70615 63.6674 8.19628 63.8945 8.77291C64.1216 9.34953 64.2352 10.003 64.2352 10.7334C64.2352 11.4638 64.1315 12.1318 63.9241 12.7372C63.7267 13.3331 63.4403 13.8472 63.0651 14.2797C62.6899 14.7026 62.2406 15.0341 61.7172 15.2744C61.1939 15.505 60.6162 15.6204 59.9843 15.6204H55.8667ZM64.908 15.6204V8.52784H66.715V9.37836C66.873 9.1381 67.036 8.9507 67.2038 8.81615C67.3816 8.68161 67.5593 8.5807 67.737 8.51342C67.9247 8.43654 68.1123 8.38849 68.2999 8.36927C68.4875 8.35005 68.68 8.34043 68.8775 8.34043H69.1293V10.2577C68.9516 10.2289 68.7738 10.2145 68.5961 10.2145C67.4211 10.2145 66.8335 10.7863 66.8335 11.9299V15.6204H64.908Z" fill="#011415"/>
<path d="M54.6425 26.088C54.4062 27.2793 54.0305 28.3556 53.5152 29.3169C52.9998 30.2782 52.3448 31.1038 51.5504 31.7934C50.7774 32.4831 49.8755 33.016 48.8448 33.3922C47.8141 33.7684 46.676 33.9565 45.4307 33.9565C44.0349 33.9565 42.7251 33.7265 41.5012 33.2668C40.2986 32.8071 39.2573 32.1175 38.3769 31.1978C37.4964 30.2782 36.7986 29.1497 36.2833 27.8122C35.7893 26.4537 35.5425 24.876 35.5425 23.0786C35.5425 21.3231 35.7679 19.7451 36.2189 18.345C36.6912 16.9238 37.357 15.7325 38.2158 14.7713C39.0747 13.7889 40.1162 13.0366 41.3401 12.5142C42.5855 11.9918 43.9704 11.7305 45.4951 11.7305C46.8265 11.7305 48.0288 11.9291 49.1025 12.3261C50.1976 12.7023 51.1317 13.2352 51.9047 13.9249C52.6991 14.5937 53.3219 15.3877 53.7728 16.3073C54.2451 17.227 54.535 18.2091 54.6425 19.2541H50.1654C49.8647 18.0628 49.2849 17.1432 48.4261 16.4954C47.5673 15.8266 46.601 15.4923 45.5273 15.4923C43.6592 15.4923 42.285 16.1506 41.4045 17.4672C40.5241 18.763 40.084 20.5499 40.084 22.8278C40.084 25.1476 40.5135 26.9553 41.3723 28.2511C42.2528 29.5258 43.5625 30.1633 45.3018 30.1633C46.6332 30.1633 47.6961 29.8185 48.4905 29.1288C49.3066 28.4183 49.8647 27.4047 50.1654 26.088H54.6425Z" fill="#011415"/>
<path d="M63.4448 30.2258C65.9999 30.2258 67.2777 28.6584 67.2777 25.5235C67.2777 22.4095 65.9999 20.8526 63.4448 20.8526C60.8895 20.8526 59.6119 22.4095 59.6119 25.5235C59.6119 28.6584 60.8895 30.2258 63.4448 30.2258ZM63.4448 33.6428C62.1564 33.6428 61.0075 33.4442 59.9984 33.0472C58.9891 32.6502 58.1303 32.0962 57.4217 31.3857C56.7345 30.6752 56.2083 29.8183 55.8435 28.8151C55.4783 27.812 55.2959 26.7148 55.2959 25.5235C55.2959 24.3115 55.4783 23.2038 55.8435 22.2006C56.23 21.1975 56.7775 20.3405 57.4861 19.63C58.1947 18.9195 59.0427 18.3761 60.0306 17.9999C61.0397 17.6029 62.1778 17.4043 63.4448 17.4043C64.6901 17.4043 65.8066 17.6029 66.7945 17.9999C67.7822 18.3761 68.6196 18.9195 69.3068 19.63C70.0154 20.3197 70.5522 21.1661 70.9173 22.1693C71.3038 23.1724 71.4971 24.2904 71.4971 25.5235C71.4971 26.7566 71.3038 27.8747 70.9173 28.8778C70.5522 29.8601 70.0154 30.7066 69.3068 31.417C68.6196 32.1275 67.7714 32.6815 66.7623 33.0785C65.7744 33.4547 64.6687 33.6428 63.4448 33.6428Z" fill="#011415"/>
<path d="M83.1586 33.2352V23.8934C83.1586 22.7022 82.9545 21.8976 82.5466 21.4796C82.1387 21.0615 81.4407 20.8526 80.453 20.8526C78.2842 20.8526 77.1999 22.0333 77.1999 24.395V33.2352H73.0127V17.8118H77.0066V20.0689C77.5006 19.1912 78.1553 18.5328 78.9714 18.094C79.7874 17.6343 80.8395 17.4043 82.1279 17.4043C82.8795 17.4043 83.5773 17.5192 84.2215 17.7491C84.8656 17.958 85.4132 18.2821 85.8641 18.7209C86.3364 19.1598 86.7016 19.7033 86.9592 20.351C87.2383 20.978 87.3779 21.7096 87.3779 22.5454V33.2352H83.1586Z" fill="#011415"/>
<path d="M99.3573 33.2352V23.8934C99.3573 22.7022 99.1535 21.8976 98.7453 21.4796C98.3374 21.0615 97.6396 20.8526 96.6517 20.8526C94.4831 20.8526 93.3986 22.0333 93.3986 24.395V33.2352H89.2114V17.8118H93.2054V20.0689C93.6993 19.1912 94.3543 18.5328 95.1701 18.094C95.9862 17.6343 97.0382 17.4043 98.3266 17.4043C99.0782 17.4043 99.776 17.5192 100.42 17.7491C101.064 17.958 101.612 18.2821 102.063 18.7209C102.535 19.1598 102.9 19.7033 103.158 20.351C103.437 20.978 103.577 21.7096 103.577 22.5454V33.2352H99.3573Z" fill="#011415"/>
<path d="M115.846 24.0188C115.825 23.4545 115.717 22.9635 115.524 22.5454C115.352 22.1066 115.116 21.7512 114.816 21.4796C114.515 21.1869 114.171 20.978 113.785 20.8526C113.398 20.7064 113.001 20.6332 112.593 20.6332C111.756 20.6332 111.026 20.9361 110.403 21.5423C109.801 22.1274 109.458 22.953 109.372 24.0188H115.846ZM109.243 26.5894C109.308 27.7598 109.651 28.6897 110.274 29.3794C110.918 30.0691 111.756 30.4139 112.786 30.4139C113.474 30.4139 114.075 30.2677 114.59 29.975C115.127 29.6615 115.47 29.2332 115.621 28.6897H119.937C119.443 30.278 118.584 31.5006 117.36 32.3575C116.136 33.2144 114.676 33.6428 112.98 33.6428C107.697 33.6428 105.056 30.8422 105.056 25.2414C105.056 24.0502 105.228 22.9738 105.572 22.0125C105.915 21.0512 106.409 20.2257 107.053 19.536C107.719 18.8463 108.524 18.3239 109.469 17.9686C110.414 17.5924 111.498 17.4043 112.722 17.4043C115.17 17.4043 117.017 18.1672 118.262 19.6927C119.529 21.2183 120.162 23.5172 120.162 26.5894H109.243Z" fill="#011415"/>
<path d="M135.878 27.6552C135.771 28.5538 135.502 29.3689 135.073 30.1004C134.665 30.8319 134.139 31.4589 133.494 31.9813C132.85 32.5037 132.109 32.9112 131.272 33.2039C130.456 33.4966 129.565 33.6428 128.599 33.6428C127.525 33.6428 126.537 33.4755 125.635 33.1412C124.755 32.7858 123.993 32.2634 123.349 31.5738C122.704 30.8633 122.2 29.9958 121.835 28.9719C121.491 27.9268 121.319 26.7148 121.319 25.3354C121.319 23.9561 121.491 22.7649 121.835 21.7617C122.2 20.7586 122.704 19.9435 123.349 19.3165C123.993 18.6688 124.766 18.188 125.668 17.8745C126.591 17.561 127.611 17.4043 128.727 17.4043C129.758 17.4043 130.692 17.5402 131.53 17.8118C132.389 18.0834 133.129 18.4807 133.752 19.0031C134.396 19.5255 134.901 20.1524 135.266 20.884C135.631 21.6155 135.846 22.4306 135.91 23.3291H131.691C131.583 22.5349 131.251 21.9185 130.692 21.4796C130.155 21.0199 129.49 20.7899 128.695 20.7899C128.244 20.7899 127.826 20.8631 127.439 21.0094C127.053 21.1556 126.709 21.4064 126.408 21.7617C126.129 22.096 125.904 22.556 125.732 23.1411C125.56 23.7053 125.474 24.4055 125.474 25.2414C125.474 26.9342 125.786 28.1881 126.408 29.0032C127.031 29.8183 127.751 30.2258 128.566 30.2258C129.382 30.2258 130.08 30.0064 130.66 29.5675C131.24 29.1286 131.573 28.4911 131.658 27.6552H135.878Z" fill="#011415"/>
<path d="M146.103 23.0784H150V27.4672C150 28.2823 149.871 29.066 149.613 29.8184C149.377 30.5499 148.991 31.2082 148.454 31.7933C147.938 32.3576 147.273 32.807 146.457 33.1413C145.662 33.4756 144.707 33.6429 143.59 33.6429C142.431 33.6429 141.443 33.4756 140.627 33.1413C139.811 32.807 139.135 32.3576 138.598 31.7933C138.082 31.229 137.707 30.5707 137.471 29.8184C137.234 29.066 137.116 28.2718 137.116 27.4359V13.6426H141.239V17.8119H150V20.696H141.239V27.0283C141.239 28.0107 141.422 28.7733 141.787 29.3168C142.173 29.8392 142.796 30.1005 143.655 30.1005C144.492 30.1005 145.104 29.8392 145.491 29.3168C145.899 28.7944 146.103 28.0523 146.103 27.091V23.0784Z" fill="#011415"/>
</g>
<defs>
<filter id="filter0_d_684_560" x="0" y="0" width="151" height="45.3398" filterUnits="userSpaceOnUse" color-interpolation-filters="sRGB">
<feFlood flood-opacity="0" result="BackgroundImageFix"/>
<feColorMatrix in="SourceAlpha" type="matrix" values="0 0 0 0 0 0 0 0 0 0 0 0 0 0 0 0 0 0 127 0" result="hardAlpha"/>
<feOffset dy="2"/>
<feGaussianBlur stdDeviation="0.5"/>
<feComposite in2="hardAlpha" operator="out"/>
<feColorMatrix type="matrix" values="0 0 0 0 0 0 0 0 0 0 0 0 0 0 0 0 0 0 0.25 0"/>
<feBlend mode="normal" in2="BackgroundImageFix" result="effect1_dropShadow_684_560"/>
<feBlend mode="normal" in="SourceGraphic" in2="effect1_dropShadow_684_560" result="shape"/>
</filter>
</defs>
</svg>
