<?xml version="1.0" encoding="UTF-8"?>
<svg class="animated" version="1.1" viewBox="0 0 500 500" xmlns="http://www.w3.org/2000/svg">
<style>svg#freepik_stories-doctor:not(.animated) .animable {opacity: 0;}svg#freepik_stories-doctor.animated #freepik--speech-bubble--inject-70 {animation: 1s 1 forwards cubic-bezier(.36,-0.01,.5,1.38) slideDown,6s Infinite  linear heartbeat;animation-delay: 0s,1s;}svg#freepik_stories-doctor.animated #freepik--Character--inject-70 {animation: 1s 1 forwards cubic-bezier(.36,-0.01,.5,1.38) slideRight,3s Infinite  linear wind;animation-delay: 0s,1s;}svg#freepik_stories-doctor.animated #freepik--Certificates--inject-70 {animation: 3s Infinite  linear wind;animation-delay: 0s;}            @keyframes slideDown {                0% {                    opacity: 0;                    transform: translateY(-30px);                }                100% {                    opacity: 1;                    transform: translateY(0);                }            }                    @keyframes heartbeat {                0% {                    transform: scale(1);                }                10% {                    transform: scale(1.1);                }                30% {                    transform: scale(1);                }                40% {                    transform: scale(1);                }                50% {                    transform: scale(1.1);                }                60% {                    transform: scale(1);                }                100% {                    transform: scale(1);                }            }                    @keyframes slideRight {                0% {                    opacity: 0;                    transform: translateX(30px);                }                100% {                    opacity: 1;                    transform: translateX(0);                }            }                    @keyframes wind {                0% {                    transform: rotate( 0deg );                }                25% {                    transform: rotate( 1deg );                }                75% {                    transform: rotate( -1deg );                }            }</style>
<g class="animable" style="transform-origin:250px 341.53px">
<ellipse class="animable" cx="250" cy="341.53" rx="238.15" ry="137.49" fill="#f0f0f0" style="transform-origin:250px 341.53px"/>
</g>
<g class="animable" fill="#e0e0e0" style="transform-origin:240.025px 369.42px">
<ellipse class="animable" cx="106.15" cy="328.29" rx="74.66" ry="41.34" style="transform-origin:106.15px 328.29px"/>
<path id="freepik--shadow--inject-70" class="animable" d="m60.5 396.5 117 67.53a4.3 4.3 0 0 0 3.86 0l206.9-119.46a1.18 1.18 0 0 0 0-2.23l-117-67.53a4.28 4.28 0 0 0-3.85 0l-206.91 119.46a1.18 1.18 0 0 0 0 2.23z" style="transform-origin:224.38px 369.42px"/>
<ellipse id="a" class="animable" cx="384.73" cy="393.4" rx="63.83" ry="36.85" style="transform-origin:384.73px 393.4px"/>
</g>
<g class="animable" style="transform-origin:113.285px 252.736px">
<g class="animable" style="transform-origin:113.285px 252.736px">
<path class="animable" d="m113.29 362.14a1.66 1.66 0 0 1-1.66-1.67v-106.77a1.66 1.66 0 1 1 3.32 0v106.77a1.67 1.67 0 0 1-1.66 1.67z" fill="#455a64" style="transform-origin:113.29px 307.09px"/>
<path class="animable" d="M179.35,323.27a1.68,1.68,0,0,1-1.55-1l-32.74-82.87a1.66,1.66,0,0,1,3.09-1.22L180.89,321a1.66,1.66,0,0,1-1.54,2.27Z" fill="#455a64" style="transform-origin:162.975px 280.199px"/>
<path class="animable" d="m175.41 313.32a1.65 1.65 0 0 1-1.2-0.52l-60.93-64.47-60.81 64.19a1.66 1.66 0 1 1-2.41-2.28l62-65.47a1.66 1.66 0 0 1 1.21-0.52 1.66 1.66 0 0 1 1.2 0.52l62.13 65.75a1.65 1.65 0 0 1-0.07 2.34 1.63 1.63 0 0 1-1.12 0.46z" fill="#455a64" style="transform-origin:113.307px 278.785px"/>
<path class="animable" d="m47.23 323.27a1.62 1.62 0 0 1-0.61-0.12 1.65 1.65 0 0 1-0.94-2.15l32.74-82.87a1.66 1.66 0 0 1 3.09 1.22l-32.74 82.87a1.66 1.66 0 0 1-1.54 1.05z" fill="#455a64" style="transform-origin:63.5945px 280.174px"/>
<path class="animable" d="M177.09,310.76l4.33,11.42a1.55,1.55,0,0,1,0,.29v.21a1.41,1.41,0,0,1-.65.72,2.92,2.92,0,0,1-2.64,0,1.09,1.09,0,0,1-.51-.54v0l0-.15-4-10.71Z" fill="#11B9C4" style="transform-origin:177.523px 317.238px"/>
<path class="animable" d="M49.48,310.76l-4.33,11.42a1.5,1.5,0,0,0,0,.29.74.74,0,0,0,0,.21,1.32,1.32,0,0,0,.65.72,2.9,2.9,0,0,0,2.63,0,1,1,0,0,0,.51-.54v0l0-.15L53,312Z" fill="#11B9C4" style="transform-origin:49.0713px 317.238px"/>
<path class="animable" d="m115.2 352.21v9.45a1 1 0 0 1-0.56 0.78 3 3 0 0 1-2.71 0 1 1 0 0 1-0.56-0.78v-9.45a4.06 4.06 0 0 1 3.83 0z" fill="#11B9C4" style="transform-origin:113.285px 357.247px"/>
<path class="animable" d="M175.8,243.24c0-2.51-2.2-5.17-6.84-8.18-8.57-5.56-27.71-16.72-39.7-23.37a.11.11,0,0,0-.1-.09c-9.23-5.6-17.84-32.27-24.22-52.53-2.18-6.91-4.84-10.82-8-12.66-.75-.43-3.52-1.95-4.14-2.32-6.26-3.76-14.49.75-24.73,6.36-9.44,5.16-16.81,11.77-18.29,29.32-.91,10.68-.05,31.09,2.12,46.56h0c3.14,25.85,7,25.89,12.59,30.21C74.13,264,95.83,274.44,105,278c16.58,6.52,30.14-3.54,40.24-8.53A234.81,234.81,0,0,0,172,253.65c2.53-1.83,3.84-3.69,3.81-5.65C175.78,247.23,175.8,244.05,175.8,243.24Z" fill="#11B9C4" style="transform-origin:112.616px 211.42px"/>
<path class="animable" d="M175.8,243.24c0-2.51-2.2-5.17-6.84-8.18-8.57-5.56-27.71-16.72-39.7-23.37a.11.11,0,0,0-.1-.09c-9.23-5.6-17.84-32.27-24.22-52.53-2.18-6.91-4.84-10.82-8-12.66-.75-.43-3.52-1.95-4.14-2.32-6.26-3.76-14.49.75-24.73,6.36-9.44,5.16-16.81,11.77-18.29,29.32-.91,10.68-.05,31.09,2.12,46.56h0c3.14,25.85,7,25.89,12.59,30.21C74.13,264,95.83,274.44,105,278c16.58,6.52,30.14-3.54,40.24-8.53A234.81,234.81,0,0,0,172,253.65c2.53-1.83,3.84-3.69,3.81-5.65C175.78,247.23,175.8,244.05,175.8,243.24Z" opacity=".25" style="transform-origin:112.616px 211.42px"/>
<path class="animable" d="M96.57,146.2c-6.21-3.26-14.28,1.17-24.26,6.64-6.39,3.51-11.84,7.66-15.15,15.43L53,165.83c3.31-7.74,8.75-11.89,15.12-15.38,10.25-5.61,18.47-10.12,24.74-6.36Z" fill="#11B9C4" style="transform-origin:74.785px 155.489px"/>
<path class="animable" d="m169 235.06c-5.56-3.61-5.68-4.53-40-23.54a0.5 0.5 0 0 1 0.16 0.07c-9.22-5.62-17.82-32.27-24.2-52.52-6.49-20.58-17.3-14.62-32.63-6.22-9.46 5.15-16.83 11.77-18.33 29.32s1.75 61 7.74 66.3c6.53 7.22 32.74 20.64 43.21 24.76 16.58 6.52 30.14-3.54 40.24-8.53a235 235 0 0 0 26.81-15.85c5.73-4.18 5.2-8.45-3-13.79z" fill="#11B9C4" style="transform-origin:114.722px 210.227px"/>
<path class="animable" d="m129.14 211.59z" fill="#11B9C4" style="transform-origin:129.14px 211.59px"/>
<g class="animable" opacity=".1" style="transform-origin:91.4121px 196.834px">
<path class="animable" d="m72.31 152.85c15.33-8.4 26.14-14.36 32.63 6.22 6.38 20.26 15 46.93 24.22 52.53 0 0-15.83 0-38.76 12.37-23.84 12.87-27.48 25.46-28.57 24.56-6-5-9.3-48.82-7.81-66.36s8.85-24.17 18.29-29.32z" style="transform-origin:91.4121px 196.834px"/>
</g>
</g>
</g>
<g class="animable" style="transform-origin:214.73px 307.805px">
<g class="animable" style="transform-origin:214.73px 307.805px">
<polygon class="animable" points="179.54 328.1 74.52 267.47 249.93 166.25 354.94 226.88" fill="#455a64" style="transform-origin:214.73px 247.175px"/>
<polygon class="animable" points="74.52 267.47 74.52 388.73 80.05 391.92 80.05 308.95 174.01 363.2 174.01 446.17 179.54 449.36 179.54 328.1" fill="#263238" style="transform-origin:127.03px 358.415px"/>
<polygon class="animable" points="80.05 391.92 85.58 388.73 85.58 312.14 80.05 308.95" style="transform-origin:82.815px 350.435px"/>
<polygon class="animable" points="179.54 449.36 185.07 446.17 185.07 363.2 349.42 268.37 349.42 351.34 354.94 348.15 354.94 226.88 179.54 328.1" fill="#37474f" style="transform-origin:267.24px 338.12px"/>
<polygon class="animable" points="349.42 351.34 343.89 348.15 343.89 271.56 349.42 268.37" fill="#263238" style="transform-origin:346.655px 309.855px"/>
<g class="animable" opacity=".2" style="transform-origin:179.711px 309.785px">
<path class="animable" d="m170 304.18c-5.37 3.09-5.37 8.11 0 11.21s14 3.09 19.41 0 5.36-8.12 0-11.21-14.03-3.1-19.41 0z" style="transform-origin:179.711px 309.785px"/>
</g>
<g class="animable" opacity=".2" style="transform-origin:127.008px 269.714px">
<path class="animable" d="m92.46 267.4 38.54 22.27a2.37 2.37 0 0 0 2.17 0l28.39-16.39a0.66 0.66 0 0 0 0-1.25l-38.56-22.28a2.44 2.44 0 0 0-2.17 0l-28.39 16.4c-0.58 0.34-0.58 0.9 0.02 1.25z" style="transform-origin:127.008px 269.714px"/>
</g>
<g class="animable" opacity=".2" style="transform-origin:127.014px 273.694px">
<path class="animable" d="M92.46,271.38,131,293.65a2.37,2.37,0,0,0,2.17,0l28.39-16.39c.6-.35.6-.91,0-1.25L123,253.73a2.44,2.44,0,0,0-2.17,0L92.46,270.12A.67.67,0,0,0,92.46,271.38Z" style="transform-origin:127.014px 273.694px"/>
</g>
<path class="animable" d="M92.46,270.08,131,292.35a2.37,2.37,0,0,0,2.17,0L161.6,276c.6-.35.6-.91,0-1.25L123,252.43a2.44,2.44,0,0,0-2.17,0L92.46,268.82A.67.67,0,0,0,92.46,270.08Z" fill="#ebebeb" style="transform-origin:127.034px 272.394px"/>
<path class="animable" d="m120.85 252.43-26.96 15.57 37.11 21.45a2.44 2.44 0 0 0 2.17 0l27-15.57-37.17-21.45a2.44 2.44 0 0 0-2.15 0z" fill="#e0e0e0" style="transform-origin:127.03px 270.942px"/>
<path class="animable" d="M92.46,266.16,131,288.43a2.37,2.37,0,0,0,2.17,0L161.6,272a.67.67,0,0,0,0-1.26L123,248.51a2.37,2.37,0,0,0-2.17,0L92.46,264.9A.67.67,0,0,0,92.46,266.16Z" fill="#fafafa" style="transform-origin:127.03px 268.47px"/>
<g class="animable" opacity=".2" style="transform-origin:181.35px 233.46px">
<path class="animable" d="M136,247.6l20.85,12.07a2.82,2.82,0,0,0,2.56,0L226.7,220.8a.78.78,0,0,0,0-1.48l-20.84-12.07a2.84,2.84,0,0,0-2.57,0L136,246.12A.78.78,0,0,0,136,247.6Z" style="transform-origin:181.35px 233.46px"/>
</g>
<path class="animable" d="m136.72 244.77v-0.47a2.58 2.58 0 0 1 1.18-2l61.78-35.7a2.59 2.59 0 0 1 2.36 0l19.14 11.08a2.62 2.62 0 0 1 1.18 2v0.47a2.6 2.6 0 0 1-1.18 2l-61.78 35.7a2.59 2.59 0 0 1-2.36 0l-19.14-11.04a2.62 2.62 0 0 1-1.18-2.04z" fill="#e0e0e0" style="transform-origin:179.54px 232.225px"/>
<path class="animable" d="M137.9,243.62,157,254.7a2.65,2.65,0,0,0,2.36,0L221.18,219a.72.72,0,0,0,0-1.36L202,206.56a2.59,2.59,0,0,0-2.36,0l-61.78,35.7A.72.72,0,0,0,137.9,243.62Z" fill="#fafafa" style="transform-origin:179.53px 230.626px"/>
<path class="animable" d="M188.58,310.58c4.73-4.83,7.51-16.9,2.89-20.73H168c-4.62,3.83-1.84,15.89,2.89,20.72l.13.14.16.16.43.38.11.09.36.27c.2.14.41.27.61.39a15.59,15.59,0,0,0,14.11,0h0a5.81,5.81,0,0,0,.61-.4l.34-.25.14-.11c.14-.12.28-.24.41-.37l.19-.18Z" fill="#ebebeb" style="transform-origin:179.735px 301.769px"/>
<path class="animable" d="m170 288.31c-5.37 3.09-5.37 8.11 0 11.21s14 3.09 19.41 0 5.36-8.12 0-11.21-14.03-3.1-19.41 0z" fill="#fafafa" style="transform-origin:179.711px 293.915px"/>
<path class="animable" d="m173.82 290.5c-3.26 1.89-3.26 4.94 0 6.82a13 13 0 0 0 11.81 0c3.26-1.88 3.26-4.93 0-6.82a13.07 13.07 0 0 0-11.81 0z" fill="#ebebeb" style="transform-origin:179.725px 293.914px"/>
<path class="animable" d="m185.63 293.74a13.07 13.07 0 0 0-11.81 0 5.47 5.47 0 0 0-2 1.79 5.47 5.47 0 0 0 2 1.79 13 13 0 0 0 11.81 0 5.35 5.35 0 0 0 2-1.79 5.35 5.35 0 0 0-2-1.79z" fill="#e0e0e0" style="transform-origin:179.725px 295.534px"/>
<path class="animable" d="M174.54,295.53a26.69,26.69,0,0,1-4.27-5.68c-2-3.49-2.34-8.16-1.32-8.74s5.17,4.09,5.17,4.09a25.49,25.49,0,0,1-.44-6c.18-3.11.93-5.93,1.82-6.5s2.89,3.35,3.74,6.19,1.36,5.18,1.36,5.18a45.11,45.11,0,0,1,1.53-6.54c1-2.95,2-3.62,2.71-3.32s1.21,1.66,1.42,5.59a38.42,38.42,0,0,1-.18,5.62s1.47-1.61,3.09-3.17c1.79-1.71,2.55-2,3.06-1.62s.65,3-2.11,8a28,28,0,0,1-5.22,6.87S181.07,298,174.54,295.53Z" fill="#11B9C4" style="transform-origin:180.457px 284.632px"/>
<path class="animable" d="M277,238.4l5-60.24a5.68,5.68,0,0,0-2.49-5,6.3,6.3,0,0,0-5.7.1l-66,38.09a7.26,7.26,0,0,0-3.22,5.09l-5,60.23a5.71,5.71,0,0,0,2.48,5,6.32,6.32,0,0,0,5.71-.11l66-38.08A7.28,7.28,0,0,0,277,238.4Z" fill="#11B9C4" style="transform-origin:240.795px 227.413px"/>
<path class="animable" d="M277,238.4l5-60.24a5.68,5.68,0,0,0-2.49-5,6.3,6.3,0,0,0-5.7.1l-66,38.09a7.26,7.26,0,0,0-3.22,5.09l-5,60.23a5.71,5.71,0,0,0,2.48,5,6.32,6.32,0,0,0,5.71-.11l66-38.08A7.28,7.28,0,0,0,277,238.4Z" fill="#fff" opacity=".5" style="transform-origin:240.795px 227.413px"/>
<path class="animable" d="M277,238.4l5-60.24a5.68,5.68,0,0,0-2.49-5,6.3,6.3,0,0,0-5.7.1l-66,38.09a6.59,6.59,0,0,0-2.14,2.16l10.25,5.92v57.44l57.86-33.4A7.28,7.28,0,0,0,277,238.4Z" fill="#11B9C4" style="transform-origin:243.839px 224.699px"/>
<path class="animable" d="M277,238.4l5-60.24a5.68,5.68,0,0,0-2.49-5,6.3,6.3,0,0,0-5.7.1l-66,38.09a6.59,6.59,0,0,0-2.14,2.16l10.25,5.92v57.44l57.86-33.4A7.28,7.28,0,0,0,277,238.4Z" fill="#fff" opacity=".8" style="transform-origin:243.839px 224.699px"/>
<path class="animable" d="m205.12 279.88 5-60.23a7.25 7.25 0 0 1 3.22-5.09l66-38.09c1.63-0.94 2.82-0.18 2.67 1.69l-5 60.24a7.28 7.28 0 0 1-3.22 5.09l-66 38.08c-1.63 0.94-2.79 0.18-2.67-1.69z" fill="#11B9C4" style="transform-origin:243.567px 229.02px"/>
<path class="animable" d="m205.12 279.88 5-60.23a7.25 7.25 0 0 1 3.22-5.09l66-38.09c1.63-0.94 2.82-0.18 2.67 1.69l-5 60.24a7.28 7.28 0 0 1-3.22 5.09l-66 38.08c-1.63 0.94-2.79 0.18-2.67-1.69z" fill="#fff" opacity=".65" style="transform-origin:243.567px 229.02px"/>
<path class="animable" d="m239.16 231.55c0.26-3.08 2.42-6.71 4.83-8.11s4.16 0 3.9 3.05-2.41 6.72-4.82 8.12-4.16 0.03-3.91-3.06z" fill="#11B9C4" style="transform-origin:243.526px 229.027px"/>
<polygon class="animable" points="240.71 249.76 256.93 240.34 254.17 238.75 237.96 248.17" fill="#11B9C4" style="transform-origin:247.445px 244.255px"/>
<g class="animable" opacity=".85" style="transform-origin:247.445px 244.255px">
<polygon class="animable" points="240.71 249.76 256.93 240.34 254.17 238.75 237.96 248.17" fill="#fff" style="transform-origin:247.445px 244.255px"/>
</g>
<path class="animable" d="M264.45,268l-19.74,11.4a2.45,2.45,0,0,1-1.27.29,2.49,2.49,0,0,1-1.07-.27s0,0,0,0l-8.69-5-.05,0a2.59,2.59,0,0,1-1.12-2v-.46c0-.75.51-1.06,1.17-.68l5.25,3,1.17.68-.26-1.33L238,248.17l2.75,1.6,16.22-9.42L265.38,266A2.06,2.06,0,0,1,264.45,268Z" fill="#11B9C4" style="transform-origin:248.954px 260.021px"/>
<g class="animable" opacity=".5" style="transform-origin:248.954px 260.021px">
<path class="animable" d="M264.45,268l-19.74,11.4a2.45,2.45,0,0,1-1.27.29,2.49,2.49,0,0,1-1.07-.27s0,0,0,0l-8.69-5-.05,0a2.59,2.59,0,0,1-1.12-2v-.46c0-.75.51-1.06,1.17-.68l5.25,3,1.17.68-.26-1.33L238,248.17l2.75,1.6,16.22-9.42L265.38,266A2.06,2.06,0,0,1,264.45,268Z" fill="#fff" style="transform-origin:248.954px 260.021px"/>
</g>
<polygon class="animable" points="232.84 271.09 239.57 267.2 240.94 276.27" fill="#11B9C4" style="transform-origin:236.89px 271.735px"/>
<g class="animable" opacity=".25" style="transform-origin:236.89px 271.735px">
<polygon class="animable" points="232.84 271.09 239.57 267.2 240.94 276.27" style="transform-origin:236.89px 271.735px"/>
</g>
<path class="animable" d="M240.71,249.77l-2.75-1.6,1.85,25.39c.15.73-.27,1-.91.65l-5.25-3c-.66-.38-1.17-.07-1.17.68v.46a2.59,2.59,0,0,0,1.12,2l.05,0,8.69,5s0,0,0,0a2.49,2.49,0,0,0,1.07.27Z" fill="#11B9C4" style="transform-origin:237.945px 263.895px"/>
<g class="animable" opacity=".25" style="transform-origin:237.945px 263.895px">
<path class="animable" d="M240.71,249.77l-2.75-1.6,1.85,25.39c.15.73-.27,1-.91.65l-5.25-3c-.66-.38-1.17-.07-1.17.68v.46a2.59,2.59,0,0,0,1.12,2l.05,0,8.69,5s0,0,0,0a2.49,2.49,0,0,0,1.07.27Z" fill="#fff" style="transform-origin:237.945px 263.895px"/>
</g>
<g class="animable" style="transform-origin:181.685px 258.754px">
<polygon class="animable" points="166.85 266.42 169.89 268.17 193.87 254.13 196.52 251.01 191 252.47" opacity=".2" style="transform-origin:181.685px 259.59px"/>
<path class="animable" d="M191.22,250.34l5.11-1a.16.16,0,0,1,.15.26L193,253.52Z" fill="#ffa8a7" style="transform-origin:193.868px 251.429px"/>
<path class="animable" d="M196.48,249.6a.16.16,0,0,0-.15-.26l-1,.19h0a.87.87,0,0,1,.41.82v.09Z" fill="#263238" style="transform-origin:195.923px 249.889px"/>
<path class="animable" d="m174 264.44 0.42-0.24 0.51-0.28 18.07-10.4a2.31 2.31 0 0 0-0.14-1.69 2.4 2.4 0 0 0-1.65-1.49l-18.11 10.39-1 0.55c0.69-0.28 2.5 2.83 1.9 3.16z" fill="#11B9C4" style="transform-origin:182.599px 257.39px"/>
<path class="animable" d="M175.56,263.54l.93-.54c.27-.15.12-.82-.21-1.52-.42-.93-1.26-1.83-1.63-1.64l-.68.4-.25.14c.37-.19,1.21.71,1.63,1.64.31.67.47,1.32.23,1.5h0Z" fill="#ebebeb" style="transform-origin:175.175px 261.677px"/>
<path class="animable" d="M175.79,263.4c.64-.34-1.19-3.5-1.84-3.16l-.93.54c.64-.34,2.47,2.82,1.83,3.16Z" fill="#11B9C4" style="transform-origin:174.472px 262.077px"/>
<path class="animable" d="m174 264.44 0.93-0.52c0.63-0.33-1.12-3.39-1.78-3.19l-0.93 0.54c0.57-0.27 2.38 2.84 1.78 3.17z" fill="#ebebeb" style="transform-origin:173.642px 262.58px"/>
<path class="animable" d="M196.5,249.42l-.17-.08-3.71,2-19.17,11c0-.06-.06-.06-.08,0,.54.85.95,1.92.59,2.1l.42-.24.51-.28L193,253.52h0l3.47-3.92A.17.17,0,0,0,196.5,249.42Z" opacity=".15" style="transform-origin:184.942px 256.89px"/>
<path class="animable" d="M170.05,266.69l3.91-2.25c.28-.14.13-.81-.19-1.5-.42-.94-1.26-1.84-1.63-1.66h0l-3.93,2.25c-.78.45-.06,2.15.81,2.9A.93.93,0,0,0,170.05,266.69Z" fill="#f28f8f" style="transform-origin:170.992px 264.003px"/>
<path class="animable" d="M170.28,265.47a2.8,2.8,0,0,0-1.6-1.93.6.6,0,0,0-.58.08c-.59.54.09,2.1.92,2.81a.93.93,0,0,0,1,.26C170.32,266.52,170.43,266.07,170.28,265.47Z" opacity=".1" style="transform-origin:169.112px 265.12px"/>
</g>
</g>
</g>
<g class="animable" style="transform-origin:285.898px 99.66px">
<g class="animable" style="transform-origin:285.898px 99.66px">
<path class="animable" d="M309.06,79.8a1.28,1.28,0,0,0-.63-.16H297l-4.72,2.72V98.69L297,96l4.07-4.7V102.8l4.72-2.72,12.36-13.3a1.26,1.26,0,0,0-.32-1.9Z" fill="#455a64" style="transform-origin:305.365px 91.22px"/>
<path class="animable" d="M301.09,102.8l4.72-2.72,12.36-13.3a1.25,1.25,0,0,0-.95-2.07H305.81l-4.72,2.73Z" fill="#37474f" style="transform-origin:309.783px 93.755px"/>
<path class="animable" d="m305.84 71.23a10 10 0 0 0-4.52-7.84 10 10 0 0 0-9.06 0l-34.41 19.7a10 10 0 0 0-4.53 7.85v37.15a10 10 0 0 0 4.53 7.84 10 10 0 0 0 9.06 0l34.84-20c4.07-2.32 4.11-4.65 4.11-7.54z" fill="#37474f" style="transform-origin:279.59px 99.66px"/>
<path class="animable" d="M253.32,128.09a10,10,0,0,0,4.53,7.84h0a10.17,10.17,0,0,0,8.29.38c-2.13.8-3.76-.42-3.76-3V96.16a9.26,9.26,0,0,1,1.33-4.46l-9.06-5.22a9.24,9.24,0,0,0-1.32,4.46Z" fill="#263238" style="transform-origin:259.73px 111.747px"/>
<path class="animable" d="m305.7 70c-0.53-1.93-2.29-2.54-4.38-1.33l-34.42 19.65a9 9 0 0 0-3.19 3.38l-9-5.21a9.09 9.09 0 0 1 3.19-3.39l34.4-19.7a10.06 10.06 0 0 1 9.07 0 10 10 0 0 1 4.33 6.6z" fill="#455a64" style="transform-origin:280.205px 77.0099px"/>
<polygon class="animable" points="288.62 116.06 280.5 120.75 280.5 88.25 288.62 83.56" fill="#11B9C4" style="transform-origin:284.56px 102.155px"/>
<polygon class="animable" points="296.75 89.7 296.75 100.53 272.38 114.6 272.38 103.77" fill="#11B9C4" style="transform-origin:284.565px 102.15px"/>
</g>
</g>
<g class="animable" style="transform-origin:378.78px 233.48px">
<g class="animable" style="transform-origin:378.78px 233.48px">
<path class="animable" d="M379.35,116.69c8,.22,10.27,3.42,15.09,10.31s21.22,33,21.22,33l23.23,8.92-3.06,13.55s-31.05-5.26-33.08-6.45-17.15-26.1-17.15-26.1Z" fill="#e6e6e6" style="transform-origin:409.12px 149.58px"/>
<path class="animable" d="m373.23 116.91c7.56-1.89 10.9 2.33 13.42 7 11.45 21 16.1 147 16.1 147s-25.54 10.19-44.49-1.77z" fill="#f0f0f0" style="transform-origin:380.505px 195.702px"/>
<path class="animable" d="M397.58,333.48l-4.78,18.19s-5.51,3.25-10.26.05c-3.77-2.54-3.54-5.55-3.54-5.55l.22-2.74.54-21.15Z" fill="#b16668" style="transform-origin:388.289px 337.705px"/>
<path class="animable" d="M374.58,356c-1.31,2.91-2.06,11.41-2.06,11.41s.8,3.13,5.15,5.9l4.23-11.24Z" fill="#263238" style="transform-origin:377.21px 364.655px"/>
<polygon class="animable" points="377.67 373.35 388.66 371.84 392.84 363.09 380.11 366.87" style="transform-origin:385.255px 368.22px"/>
<path class="animable" d="M393.63,348.52l.59-2.22c1.67.09,1.52,3.39,1.64,4.35.37,2.75.65,5.5,1.07,8.24a51.32,51.32,0,0,0,2.11,8.93c1,2.77,1.58,5.72,3.27,8.17s4.66,3.9,7.06,5.55a4.06,4.06,0,0,1,1.52,1.53c.55,1.22-.22,2.63-1.17,3.56a11.4,11.4,0,0,1-6.09,2.94,23.47,23.47,0,0,1-6.85,0,24.47,24.47,0,0,1-11.24-4.16c-3.22-2.3-3.92-6.85-4.44-10.53-.42-3-.16-6.49-1.4-9.3s-4.78-6.5-5.12-9.54a14.49,14.49,0,0,1,1.58-7.44c1.29-2.47,2.22-5.62,3.06-5.17l-.15,1.8c0-.13.83,3.46,6,4.74C387.5,350.58,392.09,350.56,393.63,348.52Z" fill="#263238" style="transform-origin:392.815px 366.604px"/>
<path class="animable" d="M385.8,368.22c.14,3.36,0,4.75,0,6.27.14,2.78.88,4.71,1.51,7.41a17,17,0,0,0,1.14,3.22c.52,1.2,1.49,2.82.92,4a4.57,4.57,0,0,1-1.14,1.41,10.67,10.67,0,0,1-7.5,2.55,8,8,0,0,1-4.08-1.17c-2.41-1.58-3.36-4.46-4.65-6.89-1.41-2.63-.59-4-.82-6.89a101.39,101.39,0,0,0-1.49-11.39C374.9,360.78,379.28,366.56,385.8,368.22Z" fill="#b16668" style="transform-origin:379.617px 378.6px"/>
<path class="animable" d="M393.78,202c7.81,27.22,21,73.48,17.3,87.88-2.8,10.79-15,50.19-15,50.19-4.71.66-14.34,1.71-18.09-6.54-.95-13.39-4.25-104.31-4.25-104.31Z" fill="#11B9C4" style="transform-origin:392.73px 271.254px"/>
<path class="animable" d="M393.78,202c7.81,27.22,21,73.48,17.3,87.88-2.8,10.79-15,50.19-15,50.19-4.71.66-14.34,1.71-18.09-6.54-.95-13.39-4.25-104.31-4.25-104.31Z" fill="#fff" opacity=".4" style="transform-origin:392.73px 271.254px"/>
<path class="animable" d="m373.78 229.17a140.23 140.23 0 0 0 13.79-15.08s-1 6.45-9.89 15.34c0 0 14.9 57.39 14.81 66.55s-5 42-5 42z" opacity=".25" style="transform-origin:383.135px 276.035px"/>
<path class="animable" d="M393.78,202c-6.37,13.21-8.87,18.49-20,27.22,0,0,13.61,56.56,14.21,67.54,1,18.25-1.35,59.1-2.19,71.51-2.11,2.76-12.39,3.23-15.63.88-1.48-5.74-6.45-25.94-8.78-44.06-1.72-13.39.48-25.37.76-28.88-7.21-18.39-23.4-45.23-29.32-64.46A48.77,48.77,0,0,1,331,221.54c-1.32-12.19,3.67-21.5,6.6-28L393.78,202" fill="#11B9C4" style="transform-origin:362.281px 282.1px"/>
<g class="animable" opacity=".5" style="transform-origin:362.281px 282.1px">
<path class="animable" d="M393.78,202c-6.37,13.21-8.87,18.49-20,27.22,0,0,13.61,56.56,14.21,67.54,1,18.25-1.35,59.1-2.19,71.51-2.11,2.76-12.39,3.23-15.63.88-1.48-5.74-6.45-25.94-8.78-44.06-1.72-13.39.48-25.37.76-28.88-7.21-18.39-23.4-45.23-29.32-64.46A48.77,48.77,0,0,1,331,221.54c-1.32-12.19,3.67-21.5,6.6-28L393.78,202" fill="#fff" style="transform-origin:362.281px 282.1px"/>
</g>
<path class="animable" d="M368.59,387.35c-.79,3.08-.07,11.57-.07,11.57s1.31,2.94,6.06,4.93l2.25-11.78Z" fill="#263238" style="transform-origin:372.525px 395.6px"/>
<polygon class="animable" points="374.58 403.85 385.14 400.48 387.75 391.17 375.88 397.05" style="transform-origin:381.165px 397.51px"/>
<path class="animable" d="M385.76,376.7l.08-2.21c1.42.71,4.47,12.24,8.65,20.18,3.82,7.24,11.48,11.32,13.95,14.48,3.3,4.23-3.24,9.58-13.65,7.26-5.16-1.16-13-4.54-15.06-8.05s-2.76-9.93-4.47-12.51-5.82-5.57-6.67-8.5a15.93,15.93,0,0,1,.09-8.07c.84-2.65.8-5.37,2.13-5.59l.2,2.08c.69,1.43,3.39,3.07,8.65,3.41C382.17,379.33,384.6,379,385.76,376.7Z" fill="#37474f" style="transform-origin:388.708px 395.331px"/>
<path class="animable" d="m367.34 94.14-5.25 17.75c-14.6 0-23.62-14.22-23.62-28.82 0-14.66 9.34-26.91 24-26.91h4.76c14.66 0 26.55 9.73 26.55 24.4 0 9.55-11.84 13.58-26.44 13.58z" fill="#263238" style="transform-origin:366.125px 84.025px"/>
<path class="animable" d="M396.52,67a10.63,10.63,0,0,0,1.55-6.1A7.09,7.09,0,0,0,395,55.51c-2.73-1.74-6.51-.92-9,1.09a7.39,7.39,0,0,0-7.9-6.59c-2.43.19-4.59,1.54-6.69,2.76A35.13,35.13,0,0,1,360,56.28L364.47,58a7.33,7.33,0,0,0-.78,6.39,7.1,7.1,0,0,0,.7,1.23,30,30,0,0,0,27.34,13.23,8.76,8.76,0,0,0,4.24-1.2,6.87,6.87,0,0,0,1.87-2A7.56,7.56,0,0,0,399.15,71,4.89,4.89,0,0,0,396.52,67Z" fill="#263238" style="transform-origin:379.58px 64.4678px"/>
<path class="animable" d="M355.94,119l-9.57,1c-6.35,1.55-9.22,4.35-9.87,10-.3,2.62-1.89,9.6.33,18.35,2,7.92,7.38,27.31,7.38,27.31S337.26,193.09,334,202c22.58,14.73,50.45,8.91,59.81,0-.79-8.42-3.77-16.27-4.44-23.78,0,0,.48-11.74,1.41-16.83,7.15-7.79,6.23-15.25,3-21.26-5.92-11.11-14.85-20.86-17.73-20.85Z" fill="#455a64" style="transform-origin:365.106px 164.998px"/>
<path class="animable" d="M373.1,112.69c2.86.7,5.09,1.86,6.25,4s10.21,16.39,10.21,16.39-7.3-9.61-12.8-12.52a9.4,9.4,0,0,0-3.66-1.22Z" fill="#e0e0e0" style="transform-origin:381.33px 122.885px"/>
<path class="animable" d="m355.94 119s10 20.85 11.78 34.92-2 62.07-2 77.3c0 18.36 0.06 48.66 0.06 48.66s-11.41 0-19.25-2.24c-5.73-1.63-12.52-4.56-16.63-9.47 0 0-1.12-37.58 1.24-55.48 2.23-17 11.28-37.94 11.28-37.94l-11.6-44.22s0.54-7.6 7.69-9.73c6.77-2.04 17.43-1.8 17.43-1.8z" fill="#fafafa" style="transform-origin:348.915px 199.436px"/>
<path class="animable" d="m346.53 128.1-11.84 17.33 7.69 29.3s-7.14 15.07-9.77 29.66c7.13-20.17 13.57-26.22 13.57-26.22l-4.18-17.06s1.47-5.37 3.52-14.53 1.71-14.47 1.01-18.48z" fill="#ebebeb" style="transform-origin:339.841px 166.245px"/>
<path class="animable" d="M353,144.44c0-.87-.08-2.75-.23-5.13-.74-11.61-1.08-22.11,2.84-23l.35,1.6c-2.87.62-1.92,15.61-1.56,21.25.16,2.43.28,4.34.24,5.3Z" fill="#11B9C4" style="transform-origin:354.133px 130.385px"/>
<path class="animable" d="M355.94,112.69a4,4,0,0,0-3.53,2.16c-.94,1.6-2.92,4.29-2.92,4.29s-.07,10.66,1,13.43c.92,2.4,12.22,11.29,12.22,11.29s-1.1,9.41-1.19,12.7,5.71,15.22,6.42,21.61c0,0,1.2-15.52.26-22.73-1.65-12.55-9.48-31.32-12.26-36.46Z" fill="#ebebeb" style="transform-origin:359.024px 145.43px"/>
<path class="animable" d="m350.63 183.27h-0.14v-1.14a7.44 7.44 0 0 0 3.76-1.4 14.17 14.17 0 0 1-3.12-2.83c-1.85-2.39-5.89-19.44-4.64-23.41 1-3.33 4.31-10.68 7.23-10.8h0.07c2.91 0 6.73 6.94 8.05 10.14 1.58 3.86-1 21.19-2.64 23.72a13.93 13.93 0 0 1-2.87 3.09 7.24 7.24 0 0 0 3.86 1.08l0.14 1.13a8.83 8.83 0 0 1-5-1.45 9.13 9.13 0 0 1-4.7 1.87zm3.21-38.45c-1.71 0.07-4.78 5.52-6.18 10-1.15 3.65 2.74 20.15 4.45 22.37a13.54 13.54 0 0 0 3.19 2.81 13.46 13.46 0 0 0 3-3.09c1.52-2.35 4-19.12 2.53-22.66-1.78-4.25-5.27-9.43-6.99-9.43z" fill="#455a64" style="transform-origin:354.294px 163.48px"/>
<path class="animable" d="m362 182.2a1.68 1.68 0 1 1-1.75-1.61 1.69 1.69 0 0 1 1.75 1.61z" fill="#263238" style="transform-origin:360.321px 182.269px"/>
<path class="animable" d="m352.19 182.62a1.68 1.68 0 1 1-1.75-1.61 1.68 1.68 0 0 1 1.75 1.61z" fill="#263238" style="transform-origin:350.511px 182.688px"/>
<path class="animable" d="M362.16,161.34l-1-.07a.36.36,0,0,1-.34-.4c.19-3.2.09-5.56-.3-6.5-1.7-4.14-5.2-9.32-6.73-9.26s-4.59,5.53-5.93,9.8c-.3,1-.21,3.33.26,6.5a.38.38,0,0,1-.31.43l-1,.15a.38.38,0,0,1-.43-.33c-.53-3.56-.59-6-.2-7.27.72-2.28,4.09-10.85,7.49-11s7.49,8.11,8.4,10.33c.5,1.22.65,3.66.42,7.26A.38.38,0,0,1,362.16,161.34Z" fill="#11B9C4" style="transform-origin:354.262px 152.691px"/>
<path class="animable" d="M322.74,248.5c1.74,1.63,2.69,3.82,4.48,7.06s10.62,3.55,11.32-5.56c.53-6.86-1.87-9.18-6.68-14.52-5.05-5.62-7-6.54-6.77-11.75.13-2.57,4-39.77,4-39.77l12.73-35.07s4.6-16.39,2.29-27.81c0,0-8.25-.67-14.08,5.15-6.81,6.8-14.52,40.42-16.22,47.21a84.65,84.65,0,0,0-3.17,26.48c.4,10.91.44,33.71,1.89,38.74S318.05,244.11,322.74,248.5Z" fill="#b16668" style="transform-origin:327.667px 189.343px"/>
<path class="animable" d="M344.68,119.57s-8.77-.55-13.9,3.65-8.32,15.94-12.09,27.67-7.13,23.16-8.37,31.38c-1,6.88,1,43.2,1,43.2s5.84,2.12,13.77-1.74L330,184l14.7-39.88A38,38,0,0,0,344.68,119.57Z" fill="#f0f0f0" style="transform-origin:328.384px 172.799px"/>
<path class="animable" d="M378.85,69.56c6.68.69,12.26,7.79,11.89,23.9-.32,13.66-4.75,17-7,18s-6.51,1.13-10.67.43v7.45s4.8,10.58,2.76,14.36C364.44,129,355.94,119,355.94,119V102.12s-2.81,3.33-7.41.28-4.78-10.62-2.1-13.34,8.44-1.85,9.51,1.9c0,0,4-.1,11.37-5.35A29,29,0,0,0,378.85,69.56Z" fill="#b16668" style="transform-origin:367.72px 101.63px"/>
<path class="animable" d="m372.19 88.22a1.84 1.84 0 0 1-1.72 2 1.89 1.89 0 1 1 1.72-2z" fill="#263238" style="transform-origin:370.305px 88.3373px"/>
<path class="animable" d="m374.11 101 5.42 1.73a2.79 2.79 0 0 1-3.52 1.94 3 3 0 0 1-1.9-3.67z" fill="#9a4a4d" style="transform-origin:376.761px 102.898px"/>
<path class="animable" d="M388.3,84l-3.68-2.55a2.15,2.15,0,0,1,3.06-.62A2.33,2.33,0,0,1,388.3,84Z" fill="#263238" style="transform-origin:386.646px 82.2195px"/>
<path class="animable" d="m387 87.87a1.82 1.82 0 1 1-1.91-1.8 1.85 1.85 0 0 1 1.91 1.8z" fill="#263238" style="transform-origin:385.18px 87.8884px"/>
<polygon class="animable" points="377.77 86.83 378.06 97.77 383.82 95.99" fill="#9a4a4d" style="transform-origin:380.795px 92.3px"/>
<path class="animable" d="M373.1,111.89c-4.4-.57-13.43-3.91-14.84-7.49a9.24,9.24,0,0,0,3.17,4.56c2.7,2.32,11.67,4.92,11.67,4.92Z" fill="#9a4a4d" style="transform-origin:365.68px 109.14px"/>
<polygon class="animable" points="446.55 155.48 403.07 176.17 391.11 227.91 392.08 228.94 433.41 208.15 447.52 156.51" fill="#11B9C4" style="transform-origin:419.315px 192.21px"/>
<polygon class="animable" points="404.05 177.21 392.08 228.94 391.11 227.91 403.07 176.17" opacity=".35" style="transform-origin:397.58px 202.555px"/>
<polygon class="animable" points="447.52 156.51 404.05 177.21 392.08 228.94 433.41 208.15" opacity=".25" style="transform-origin:419.8px 192.725px"/>
<g class="animable" opacity=".2" style="transform-origin:431.685px 199.013px">
<path class="animable" d="M427,197.63c.4,1,3.73,3.26,8.56,2.86l.81-3Z" style="transform-origin:431.685px 199.013px"/>
</g>
<g class="animable" opacity=".1" style="transform-origin:425.346px 170.352px">
<path class="animable" d="M434.42,167.11l.36-1.73c.2-1-2.35-.46-5.7,1.12l-6.4,3c-3.35,1.58-6.22,3.64-6.42,4.6l-.36,1.73Z" style="transform-origin:425.346px 170.352px"/>
</g>
<path class="animable" d="M437.06,159c.13-.6-.91-.53-2.31.16l-2.53,1.24s.75-3.75-4.88-1.3-6.85,6.78-6.85,6.78l-2.71,1.35c-1.5.74-2.85,1.84-3,2.44l-.32,1.1,22.39-10.65S436.94,159.6,437.06,159Z" fill="#37474f" style="transform-origin:425.765px 164.52px"/>
<path class="animable" d="M434.68,162.59c-2.05.93-2.91,1.39-3.21,2.87-.35,1.68-.49,2.9-.49,2.9l-9.92,4.72s.48-2.14.63-3-.18-1.24-1.76-.48l-.62-1.74,16-7.46Z" fill="#37474f" style="transform-origin:427.31px 166.74px"/>
<path class="animable" d="M435,167.14s.16-.78.36-1.73-2.35-.46-5.7,1.12l-6.41,3c-3.34,1.58-6.21,3.64-6.41,4.6l-.36,1.73Z" fill="#37474f" style="transform-origin:425.925px 170.393px"/>
<path class="animable" d="m442.68 174.21s-1.54 5.68-1.94 7.11-7.52 4.72-11.09 5.17c-6.82 0.85-7.59 2.33-5.95 7.17 1.51 4.46 5.95 6.15 12.11 5.42 2.88-0.34 6.87-2.9 8.44-7.37 2-5.7 0.92-11.8 1.71-15.13s-1.54-4.35-3.28-2.37z" fill="#b16668" style="transform-origin:434.544px 186.224px"/>
</g>
</g>
<g class="animable" style="transform-origin:117.37px 79.34px">
<g class="animable" style="transform-origin:77.37px 79.34px">
<g class="animable" style="transform-origin:77.37px 79.34px">
<polygon class="animable" points="50.96 115.69 52.99 116.86 103.74 87.56 101.71 86.39" fill="#455a64" style="transform-origin:77.35px 101.625px"/>
<polygon class="animable" points="101.71 86.39 52.99 114.52 52.99 72.29 101.71 44.16" fill="#11B9C4" style="transform-origin:77.35px 79.34px"/>
<g class="animable" opacity=".8" style="transform-origin:77.35px 79.34px">
<polygon class="animable" points="101.71 86.39 52.99 114.52 52.99 72.29 101.71 44.16" fill="#fff" style="transform-origin:77.35px 79.34px"/>
</g>
<path class="animable" d="M105.77,39.47,51,71.11v49.27l54.81-31.65Zm-2,48.09L53,116.86V72.29L103.74,43Z" fill="#37474f" style="transform-origin:78.405px 79.925px"/>
<polygon class="animable" points="103.74 87.56 101.71 86.39 101.71 44.16 103.74 42.98" fill="#263238" style="transform-origin:102.725px 65.27px"/>
<polygon class="animable" points="105.77 39.47 103.74 38.3 48.93 69.94 50.96 71.11" fill="#455a64" style="transform-origin:77.35px 54.705px"/>
<polygon class="animable" points="48.93 69.94 50.96 71.11 50.96 120.38 48.93 119.21" fill="#263238" style="transform-origin:49.945px 95.16px"/>
</g>
<path class="animable" d="M92.15,79.29c1.9-1.1,3.43-.21,3.43,2a7.55,7.55,0,0,1-3.43,5.93c-1.89,1.09-3.42.21-3.42-2A7.57,7.57,0,0,1,92.15,79.29Z" fill="#11B9C4" style="transform-origin:92.155px 83.2528px"/>
<path class="animable" d="M64.46,70.36l25.8-14.9c.72-.42,1.3-.08,1.3.74v.08a2.86,2.86,0,0,1-1.3,2.25L64.46,73.45c-.71.42-1.3.08-1.3-.75v-.09A2.91,2.91,0,0,1,64.46,70.36Z" opacity=".2" style="transform-origin:77.36px 64.4549px"/>
<g class="animable" opacity=".2" style="transform-origin:77.3899px 78.1635px">
<path class="animable" d="M60.38,82.1l34-19.6c.72-.42,1.3-.23,1.3.42a2.58,2.58,0,0,1-1.3,1.92l-34,19.62c-.71.42-1.29.23-1.28-.43A2.63,2.63,0,0,1,60.38,82.1Z" style="transform-origin:77.3899px 73.4798px"/>
<path class="animable" d="M60.38,86.79l34-19.61c.72-.41,1.3-.22,1.3.42a2.61,2.61,0,0,1-1.3,1.93l-34,19.62c-.71.41-1.29.22-1.28-.43A2.61,2.61,0,0,1,60.38,86.79Z" style="transform-origin:77.3899px 78.1648px"/>
<path class="animable" d="M60.38,91.47l34-19.61c.72-.41,1.3-.22,1.3.43a2.58,2.58,0,0,1-1.3,1.92l-34,19.62c-.71.42-1.29.22-1.28-.43A2.63,2.63,0,0,1,60.38,91.47Z" style="transform-origin:77.3899px 82.8472px"/>
</g>
<path class="animable" d="M86.06,89.31a2,2,0,0,1-.85.23c-.73,0-.66-.74-.64-1.25,0-.23-.31-.59-.47-.28-.44.79-1,1.53-1.48,2.3-.29.47-.84,1.54-1.54,1.39-.28-.06-.38-.37-.38-.76a3.79,3.79,0,0,0,.45-2.12c0-.22-.4-.49-.51-.19a6.39,6.39,0,0,0-.44,2,12.9,12.9,0,0,1-1.1,1.63c-.24.31-.44.66-.7,1-.07.07-.19.25-.29.26s-.21-.1-.24-.26a1.67,1.67,0,0,1,.11-.69h0s0,0,0-.06h0c0-.23-.3-.57-.42-.28a10.2,10.2,0,0,1-2,3.32l-.13.11c0-.14,0-.27,0-.41a3.55,3.55,0,0,0-.16-.92c-.06-.15-.32-.38-.46-.18a15.53,15.53,0,0,1-2.26,3.12,3.81,3.81,0,0,1-.47.33c-.16-.08.08-.91.12-1,.09-.37.21-.73.33-1.09a4.06,4.06,0,0,0,.27-.9c0-.28-.43-.71-.52-.33,0,.15-.17.52-.31,1A24.92,24.92,0,0,1,70,98.36a7.45,7.45,0,0,1-2.65,2.55c-.3.16-.87.4-1.2.16s-.3-.65-.31-1a7.84,7.84,0,0,1,.32-2.35,14,14,0,0,0,2.94-2.08,10.43,10.43,0,0,0,2.23-2.46c.3-.55.48-1.44-.25-1.75-.51-.22-1.16.14-1.59.38A7,7,0,0,0,67.9,93.1a9.35,9.35,0,0,0-2,3.71c-.06.21-.15.49-.23.8a6.28,6.28,0,0,1-3.74.63c-.07,0-.1.15,0,.16a6.09,6.09,0,0,0,3.66-.35c-.33,1.42-.51,3.3.81,3.67s2.92-1.29,3.63-2.25a14.4,14.4,0,0,0,1.42-2.29,1.77,1.77,0,0,1,.12-.17c0,.66.13,1.14.78,1s1.24-1,1.6-1.53.65-1,1-1.47c.06.6.16,1.27.73,1.16s1-1.1,1.3-1.5.45-.7.64-1.06a2.14,2.14,0,0,0,.13.19c.47.5,1,0,1.34-.44.43-.56.91-1.16,1.32-1.8a1.12,1.12,0,0,0,.56.63c.73.34,1.41-.26,1.83-.79a16.47,16.47,0,0,0,1.36-2.2,1.06,1.06,0,0,0,.5.7,1.69,1.69,0,0,0,1.71-.11C86.51,89.68,86.3,89.19,86.06,89.31ZM70.17,92.15c.33-.17,1-.46,1.07.11a1.81,1.81,0,0,1-.46,1,11.88,11.88,0,0,1-2,2.1,17,17,0,0,1-2.47,1.89A8,8,0,0,1,70.17,92.15Z" opacity=".3" style="transform-origin:74.1404px 94.8312px"/>
</g>
<g class="animable" style="transform-origin:157.37px 79.34px">
<g class="animable" style="transform-origin:157.37px 79.34px">
<polygon class="animable" points="130.96 115.69 132.99 116.86 183.74 87.56 181.71 86.39" fill="#455a64" style="transform-origin:157.35px 101.625px"/>
<polygon class="animable" points="181.71 86.39 132.99 114.52 132.99 72.29 181.71 44.16" fill="#11B9C4" style="transform-origin:157.35px 79.34px"/>
<g class="animable" opacity=".8" style="transform-origin:157.35px 79.34px">
<polygon class="animable" points="181.71 86.39 132.99 114.52 132.99 72.29 181.71 44.16" fill="#fff" style="transform-origin:157.35px 79.34px"/>
</g>
<path class="animable" d="M185.77,39.47,131,71.11v49.27l54.81-31.65Zm-2,48.09L133,116.86V72.29L183.74,43Z" fill="#37474f" style="transform-origin:158.405px 79.925px"/>
<polygon class="animable" points="183.74 87.56 181.71 86.39 181.71 44.16 183.74 42.98" fill="#263238" style="transform-origin:182.725px 65.27px"/>
<polygon class="animable" points="185.77 39.47 183.74 38.3 128.93 69.94 130.96 71.11" fill="#455a64" style="transform-origin:157.35px 54.705px"/>
<polygon class="animable" points="128.93 69.94 130.96 71.11 130.96 120.38 128.93 119.21" fill="#263238" style="transform-origin:129.945px 95.16px"/>
</g>
<path class="animable" d="m172.16 79.29c1.89-1.1 3.42-0.21 3.42 2a7.57 7.57 0 0 1-3.42 5.93c-1.9 1.09-3.43 0.21-3.43-2a7.55 7.55 0 0 1 3.43-5.93z" fill="#11B9C4" style="transform-origin:172.155px 83.2528px"/>
<path class="animable" d="M144.46,70.36l25.81-14.9c.71-.42,1.29-.08,1.29.74v.08a2.87,2.87,0,0,1-1.29,2.25L144.46,73.45c-.71.42-1.29.08-1.29-.75v-.09A2.9,2.9,0,0,1,144.46,70.36Z" opacity=".2" style="transform-origin:157.365px 64.4549px"/>
<g class="animable" opacity=".2" style="transform-origin:157.39px 78.1635px">
<path class="animable" d="M140.38,82.1l34-19.6c.72-.42,1.3-.23,1.3.42a2.58,2.58,0,0,1-1.3,1.92l-34,19.62c-.71.42-1.29.23-1.28-.43A2.63,2.63,0,0,1,140.38,82.1Z" style="transform-origin:157.39px 73.4798px"/>
<path class="animable" d="M140.38,86.79l34-19.61c.72-.41,1.3-.22,1.3.42a2.61,2.61,0,0,1-1.3,1.93l-34,19.62c-.71.41-1.29.22-1.28-.43A2.61,2.61,0,0,1,140.38,86.79Z" style="transform-origin:157.39px 78.1648px"/>
<path class="animable" d="M140.38,91.47l34-19.61c.72-.41,1.3-.22,1.3.43a2.58,2.58,0,0,1-1.3,1.92l-34,19.62c-.71.42-1.29.22-1.28-.43A2.63,2.63,0,0,1,140.38,91.47Z" style="transform-origin:157.39px 82.8472px"/>
</g>
<path class="animable" d="M166.06,89.31a1.93,1.93,0,0,1-.85.23c-.72,0-.66-.74-.64-1.25,0-.23-.31-.59-.47-.28-.44.79-1,1.53-1.48,2.3-.28.47-.84,1.54-1.53,1.39-.29-.06-.39-.37-.39-.76a3.79,3.79,0,0,0,.45-2.12c0-.22-.39-.49-.51-.19a6.39,6.39,0,0,0-.44,2,12.9,12.9,0,0,1-1.1,1.63c-.23.31-.44.66-.7,1-.06.07-.19.25-.29.26s-.21-.1-.24-.26a1.67,1.67,0,0,1,.11-.69h0a.14.14,0,0,0,0-.06h0c0-.23-.3-.57-.42-.28a10.2,10.2,0,0,1-2,3.32l-.13.11c0-.14,0-.27,0-.41a3.55,3.55,0,0,0-.16-.92c-.06-.15-.32-.38-.46-.18a15.15,15.15,0,0,1-2.26,3.12,3.18,3.18,0,0,1-.47.33c-.15-.08.09-.91.12-1,.09-.37.21-.73.33-1.09a4.06,4.06,0,0,0,.27-.9c0-.28-.43-.71-.52-.33,0,.15-.17.52-.31,1A23.83,23.83,0,0,1,150,98.36a7.45,7.45,0,0,1-2.65,2.55c-.3.16-.87.4-1.2.16s-.29-.65-.31-1a8.54,8.54,0,0,1,.32-2.35,14,14,0,0,0,2.94-2.08,10.22,10.22,0,0,0,2.23-2.46c.3-.55.48-1.44-.25-1.75-.51-.22-1.16.14-1.59.38a7,7,0,0,0-1.62,1.25,9.35,9.35,0,0,0-2,3.71c-.06.21-.15.49-.23.8a6.28,6.28,0,0,1-3.74.63c-.07,0-.1.15,0,.16a6.09,6.09,0,0,0,3.66-.35c-.33,1.42-.51,3.3.81,3.67s2.92-1.29,3.63-2.25a14.4,14.4,0,0,0,1.42-2.29,1.77,1.77,0,0,1,.12-.17c0,.66.13,1.14.78,1s1.24-1,1.61-1.53.64-1,1-1.47c.06.6.17,1.27.73,1.16s1-1.1,1.3-1.5.45-.7.64-1.06a2.14,2.14,0,0,0,.13.19c.47.5,1,0,1.34-.44.43-.56.91-1.16,1.32-1.8a1.12,1.12,0,0,0,.56.63c.73.34,1.41-.26,1.83-.79a16.47,16.47,0,0,0,1.36-2.2,1.06,1.06,0,0,0,.5.7,1.69,1.69,0,0,0,1.71-.11C166.52,89.68,166.3,89.19,166.06,89.31Zm-15.89,2.84c.34-.17,1-.46,1.07.11a1.87,1.87,0,0,1-.45,1,12.32,12.32,0,0,1-2,2.1,17,17,0,0,1-2.47,1.89A8,8,0,0,1,150.17,92.15Z" opacity=".3" style="transform-origin:154.123px 94.8112px"/>
</g>
</g>
</svg>
